<?xml version="1.0" encoding="utf-8" standalone="no"?>
<!DOCTYPE svg PUBLIC "-//W3C//DTD SVG 1.1//EN"
  "http://www.w3.org/Graphics/SVG/1.1/DTD/svg11.dtd">
<svg xmlns:xlink="http://www.w3.org/1999/xlink" width="1107.206719pt" height="548.129531pt" viewBox="0 0 1107.206719 548.129531" xmlns="http://www.w3.org/2000/svg" version="1.1">
 <metadata>
  <rdf:RDF xmlns:dc="http://purl.org/dc/elements/1.1/" xmlns:cc="http://creativecommons.org/ns#" xmlns:rdf="http://www.w3.org/1999/02/22-rdf-syntax-ns#">
   <cc:Work>
    <dc:type rdf:resource="http://purl.org/dc/dcmitype/StillImage"/>
    <dc:date>2022-09-09T02:02:48.443147</dc:date>
    <dc:format>image/svg+xml</dc:format>
    <dc:creator>
     <cc:Agent>
      <dc:title>Matplotlib v3.5.3, https://matplotlib.org/</dc:title>
     </cc:Agent>
    </dc:creator>
   </cc:Work>
  </rdf:RDF>
 </metadata>
 <defs>
  <style type="text/css">*{stroke-linejoin: round; stroke-linecap: butt}</style>
 </defs>
 <g id="figure_1">
  <g id="patch_1">
   <path d="M 0 548.129531 
L 1107.206719 548.129531 
L 1107.206719 0 
L 0 0 
z
" style="fill: #ffffff"/>
  </g>
  <g id="axes_1">
   <g id="patch_2">
    <path d="M 72.615 491.04 
L 853.815 491.04 
L 853.815 47.52 
L 72.615 47.52 
z
" style="fill: #ffffff"/>
   </g>
   <g id="PolyCollection_1"/>
   <g id="PolyCollection_2"/>
   <g id="PolyCollection_3"/>
   <g id="PolyCollection_4"/>
   <g id="PolyCollection_5"/>
   <g id="PolyCollection_6"/>
   <g id="PolyCollection_7"/>
   <g id="PolyCollection_8"/>
   <g id="PolyCollection_9"/>
   <g id="PolyCollection_10"/>
   <g id="matplotlib.axis_1">
    <g id="xtick_1">
     <g id="line2d_1">
      <defs>
       <path id="md00c4e6898" d="M 0 0 
L 0 9 
" style="stroke: #000000; stroke-width: 1.875"/>
      </defs>
      <g>
       <use xlink:href="#md00c4e6898" x="72.615" y="491.04" style="stroke: #000000; stroke-width: 1.875"/>
      </g>
     </g>
     <g id="text_1">
      <!-- 0 -->
      <g transform="translate(67.365938 516.077422)scale(0.165 -0.165)">
       <defs>
        <path id="DejaVuSans-30" d="M 2034 4250 
Q 1547 4250 1301 3770 
Q 1056 3291 1056 2328 
Q 1056 1369 1301 889 
Q 1547 409 2034 409 
Q 2525 409 2770 889 
Q 3016 1369 3016 2328 
Q 3016 3291 2770 3770 
Q 2525 4250 2034 4250 
z
M 2034 4750 
Q 2819 4750 3233 4129 
Q 3647 3509 3647 2328 
Q 3647 1150 3233 529 
Q 2819 -91 2034 -91 
Q 1250 -91 836 529 
Q 422 1150 422 2328 
Q 422 3509 836 4129 
Q 1250 4750 2034 4750 
z
" transform="scale(0.015625)"/>
       </defs>
       <use xlink:href="#DejaVuSans-30"/>
      </g>
     </g>
    </g>
    <g id="xtick_2">
     <g id="line2d_2">
      <g>
       <use xlink:href="#md00c4e6898" x="202.815" y="491.04" style="stroke: #000000; stroke-width: 1.875"/>
      </g>
     </g>
     <g id="text_2">
      <!-- 2,000 -->
      <g transform="translate(179.196797 516.077422)scale(0.165 -0.165)">
       <defs>
        <path id="DejaVuSans-32" d="M 1228 531 
L 3431 531 
L 3431 0 
L 469 0 
L 469 531 
Q 828 903 1448 1529 
Q 2069 2156 2228 2338 
Q 2531 2678 2651 2914 
Q 2772 3150 2772 3378 
Q 2772 3750 2511 3984 
Q 2250 4219 1831 4219 
Q 1534 4219 1204 4116 
Q 875 4013 500 3803 
L 500 4441 
Q 881 4594 1212 4672 
Q 1544 4750 1819 4750 
Q 2544 4750 2975 4387 
Q 3406 4025 3406 3419 
Q 3406 3131 3298 2873 
Q 3191 2616 2906 2266 
Q 2828 2175 2409 1742 
Q 1991 1309 1228 531 
z
" transform="scale(0.015625)"/>
        <path id="DejaVuSans-2c" d="M 750 794 
L 1409 794 
L 1409 256 
L 897 -744 
L 494 -744 
L 750 256 
L 750 794 
z
" transform="scale(0.015625)"/>
       </defs>
       <use xlink:href="#DejaVuSans-32"/>
       <use xlink:href="#DejaVuSans-2c" x="63.623047"/>
       <use xlink:href="#DejaVuSans-30" x="95.410156"/>
       <use xlink:href="#DejaVuSans-30" x="159.033203"/>
       <use xlink:href="#DejaVuSans-30" x="222.65625"/>
      </g>
     </g>
    </g>
    <g id="xtick_3">
     <g id="line2d_3">
      <g>
       <use xlink:href="#md00c4e6898" x="333.015" y="491.04" style="stroke: #000000; stroke-width: 1.875"/>
      </g>
     </g>
     <g id="text_3">
      <!-- 4,000 -->
      <g transform="translate(309.396797 516.077422)scale(0.165 -0.165)">
       <defs>
        <path id="DejaVuSans-34" d="M 2419 4116 
L 825 1625 
L 2419 1625 
L 2419 4116 
z
M 2253 4666 
L 3047 4666 
L 3047 1625 
L 3713 1625 
L 3713 1100 
L 3047 1100 
L 3047 0 
L 2419 0 
L 2419 1100 
L 313 1100 
L 313 1709 
L 2253 4666 
z
" transform="scale(0.015625)"/>
       </defs>
       <use xlink:href="#DejaVuSans-34"/>
       <use xlink:href="#DejaVuSans-2c" x="63.623047"/>
       <use xlink:href="#DejaVuSans-30" x="95.410156"/>
       <use xlink:href="#DejaVuSans-30" x="159.033203"/>
       <use xlink:href="#DejaVuSans-30" x="222.65625"/>
      </g>
     </g>
    </g>
    <g id="xtick_4">
     <g id="line2d_4">
      <g>
       <use xlink:href="#md00c4e6898" x="463.215" y="491.04" style="stroke: #000000; stroke-width: 1.875"/>
      </g>
     </g>
     <g id="text_4">
      <!-- 6,000 -->
      <g transform="translate(439.596797 516.077422)scale(0.165 -0.165)">
       <defs>
        <path id="DejaVuSans-36" d="M 2113 2584 
Q 1688 2584 1439 2293 
Q 1191 2003 1191 1497 
Q 1191 994 1439 701 
Q 1688 409 2113 409 
Q 2538 409 2786 701 
Q 3034 994 3034 1497 
Q 3034 2003 2786 2293 
Q 2538 2584 2113 2584 
z
M 3366 4563 
L 3366 3988 
Q 3128 4100 2886 4159 
Q 2644 4219 2406 4219 
Q 1781 4219 1451 3797 
Q 1122 3375 1075 2522 
Q 1259 2794 1537 2939 
Q 1816 3084 2150 3084 
Q 2853 3084 3261 2657 
Q 3669 2231 3669 1497 
Q 3669 778 3244 343 
Q 2819 -91 2113 -91 
Q 1303 -91 875 529 
Q 447 1150 447 2328 
Q 447 3434 972 4092 
Q 1497 4750 2381 4750 
Q 2619 4750 2861 4703 
Q 3103 4656 3366 4563 
z
" transform="scale(0.015625)"/>
       </defs>
       <use xlink:href="#DejaVuSans-36"/>
       <use xlink:href="#DejaVuSans-2c" x="63.623047"/>
       <use xlink:href="#DejaVuSans-30" x="95.410156"/>
       <use xlink:href="#DejaVuSans-30" x="159.033203"/>
       <use xlink:href="#DejaVuSans-30" x="222.65625"/>
      </g>
     </g>
    </g>
    <g id="xtick_5">
     <g id="line2d_5">
      <g>
       <use xlink:href="#md00c4e6898" x="593.415" y="491.04" style="stroke: #000000; stroke-width: 1.875"/>
      </g>
     </g>
     <g id="text_5">
      <!-- 8,000 -->
      <g transform="translate(569.796797 516.077422)scale(0.165 -0.165)">
       <defs>
        <path id="DejaVuSans-38" d="M 2034 2216 
Q 1584 2216 1326 1975 
Q 1069 1734 1069 1313 
Q 1069 891 1326 650 
Q 1584 409 2034 409 
Q 2484 409 2743 651 
Q 3003 894 3003 1313 
Q 3003 1734 2745 1975 
Q 2488 2216 2034 2216 
z
M 1403 2484 
Q 997 2584 770 2862 
Q 544 3141 544 3541 
Q 544 4100 942 4425 
Q 1341 4750 2034 4750 
Q 2731 4750 3128 4425 
Q 3525 4100 3525 3541 
Q 3525 3141 3298 2862 
Q 3072 2584 2669 2484 
Q 3125 2378 3379 2068 
Q 3634 1759 3634 1313 
Q 3634 634 3220 271 
Q 2806 -91 2034 -91 
Q 1263 -91 848 271 
Q 434 634 434 1313 
Q 434 1759 690 2068 
Q 947 2378 1403 2484 
z
M 1172 3481 
Q 1172 3119 1398 2916 
Q 1625 2713 2034 2713 
Q 2441 2713 2670 2916 
Q 2900 3119 2900 3481 
Q 2900 3844 2670 4047 
Q 2441 4250 2034 4250 
Q 1625 4250 1398 4047 
Q 1172 3844 1172 3481 
z
" transform="scale(0.015625)"/>
       </defs>
       <use xlink:href="#DejaVuSans-38"/>
       <use xlink:href="#DejaVuSans-2c" x="63.623047"/>
       <use xlink:href="#DejaVuSans-30" x="95.410156"/>
       <use xlink:href="#DejaVuSans-30" x="159.033203"/>
       <use xlink:href="#DejaVuSans-30" x="222.65625"/>
      </g>
     </g>
    </g>
    <g id="xtick_6">
     <g id="line2d_6">
      <g>
       <use xlink:href="#md00c4e6898" x="723.615" y="491.04" style="stroke: #000000; stroke-width: 1.875"/>
      </g>
     </g>
     <g id="text_6">
      <!-- 10,000 -->
      <g transform="translate(694.747734 516.077422)scale(0.165 -0.165)">
       <defs>
        <path id="DejaVuSans-31" d="M 794 531 
L 1825 531 
L 1825 4091 
L 703 3866 
L 703 4441 
L 1819 4666 
L 2450 4666 
L 2450 531 
L 3481 531 
L 3481 0 
L 794 0 
L 794 531 
z
" transform="scale(0.015625)"/>
       </defs>
       <use xlink:href="#DejaVuSans-31"/>
       <use xlink:href="#DejaVuSans-30" x="63.623047"/>
       <use xlink:href="#DejaVuSans-2c" x="127.246094"/>
       <use xlink:href="#DejaVuSans-30" x="159.033203"/>
       <use xlink:href="#DejaVuSans-30" x="222.65625"/>
       <use xlink:href="#DejaVuSans-30" x="286.279297"/>
      </g>
     </g>
    </g>
    <g id="xtick_7">
     <g id="line2d_7">
      <g>
       <use xlink:href="#md00c4e6898" x="853.815" y="491.04" style="stroke: #000000; stroke-width: 1.875"/>
      </g>
     </g>
     <g id="text_7">
      <!-- 12,000 -->
      <g transform="translate(824.947734 516.077422)scale(0.165 -0.165)">
       <use xlink:href="#DejaVuSans-31"/>
       <use xlink:href="#DejaVuSans-32" x="63.623047"/>
       <use xlink:href="#DejaVuSans-2c" x="127.246094"/>
       <use xlink:href="#DejaVuSans-30" x="159.033203"/>
       <use xlink:href="#DejaVuSans-30" x="222.65625"/>
       <use xlink:href="#DejaVuSans-30" x="286.279297"/>
      </g>
     </g>
    </g>
    <g id="text_8">
     <!-- Number of samples -->
     <g transform="translate(375.254063 537.186094)scale(0.18 -0.18)">
      <defs>
       <path id="DejaVuSans-4e" d="M 628 4666 
L 1478 4666 
L 3547 763 
L 3547 4666 
L 4159 4666 
L 4159 0 
L 3309 0 
L 1241 3903 
L 1241 0 
L 628 0 
L 628 4666 
z
" transform="scale(0.015625)"/>
       <path id="DejaVuSans-75" d="M 544 1381 
L 544 3500 
L 1119 3500 
L 1119 1403 
Q 1119 906 1312 657 
Q 1506 409 1894 409 
Q 2359 409 2629 706 
Q 2900 1003 2900 1516 
L 2900 3500 
L 3475 3500 
L 3475 0 
L 2900 0 
L 2900 538 
Q 2691 219 2414 64 
Q 2138 -91 1772 -91 
Q 1169 -91 856 284 
Q 544 659 544 1381 
z
M 1991 3584 
L 1991 3584 
z
" transform="scale(0.015625)"/>
       <path id="DejaVuSans-6d" d="M 3328 2828 
Q 3544 3216 3844 3400 
Q 4144 3584 4550 3584 
Q 5097 3584 5394 3201 
Q 5691 2819 5691 2113 
L 5691 0 
L 5113 0 
L 5113 2094 
Q 5113 2597 4934 2840 
Q 4756 3084 4391 3084 
Q 3944 3084 3684 2787 
Q 3425 2491 3425 1978 
L 3425 0 
L 2847 0 
L 2847 2094 
Q 2847 2600 2669 2842 
Q 2491 3084 2119 3084 
Q 1678 3084 1418 2786 
Q 1159 2488 1159 1978 
L 1159 0 
L 581 0 
L 581 3500 
L 1159 3500 
L 1159 2956 
Q 1356 3278 1631 3431 
Q 1906 3584 2284 3584 
Q 2666 3584 2933 3390 
Q 3200 3197 3328 2828 
z
" transform="scale(0.015625)"/>
       <path id="DejaVuSans-62" d="M 3116 1747 
Q 3116 2381 2855 2742 
Q 2594 3103 2138 3103 
Q 1681 3103 1420 2742 
Q 1159 2381 1159 1747 
Q 1159 1113 1420 752 
Q 1681 391 2138 391 
Q 2594 391 2855 752 
Q 3116 1113 3116 1747 
z
M 1159 2969 
Q 1341 3281 1617 3432 
Q 1894 3584 2278 3584 
Q 2916 3584 3314 3078 
Q 3713 2572 3713 1747 
Q 3713 922 3314 415 
Q 2916 -91 2278 -91 
Q 1894 -91 1617 61 
Q 1341 213 1159 525 
L 1159 0 
L 581 0 
L 581 4863 
L 1159 4863 
L 1159 2969 
z
" transform="scale(0.015625)"/>
       <path id="DejaVuSans-65" d="M 3597 1894 
L 3597 1613 
L 953 1613 
Q 991 1019 1311 708 
Q 1631 397 2203 397 
Q 2534 397 2845 478 
Q 3156 559 3463 722 
L 3463 178 
Q 3153 47 2828 -22 
Q 2503 -91 2169 -91 
Q 1331 -91 842 396 
Q 353 884 353 1716 
Q 353 2575 817 3079 
Q 1281 3584 2069 3584 
Q 2775 3584 3186 3129 
Q 3597 2675 3597 1894 
z
M 3022 2063 
Q 3016 2534 2758 2815 
Q 2500 3097 2075 3097 
Q 1594 3097 1305 2825 
Q 1016 2553 972 2059 
L 3022 2063 
z
" transform="scale(0.015625)"/>
       <path id="DejaVuSans-72" d="M 2631 2963 
Q 2534 3019 2420 3045 
Q 2306 3072 2169 3072 
Q 1681 3072 1420 2755 
Q 1159 2438 1159 1844 
L 1159 0 
L 581 0 
L 581 3500 
L 1159 3500 
L 1159 2956 
Q 1341 3275 1631 3429 
Q 1922 3584 2338 3584 
Q 2397 3584 2469 3576 
Q 2541 3569 2628 3553 
L 2631 2963 
z
" transform="scale(0.015625)"/>
       <path id="DejaVuSans-20" transform="scale(0.015625)"/>
       <path id="DejaVuSans-6f" d="M 1959 3097 
Q 1497 3097 1228 2736 
Q 959 2375 959 1747 
Q 959 1119 1226 758 
Q 1494 397 1959 397 
Q 2419 397 2687 759 
Q 2956 1122 2956 1747 
Q 2956 2369 2687 2733 
Q 2419 3097 1959 3097 
z
M 1959 3584 
Q 2709 3584 3137 3096 
Q 3566 2609 3566 1747 
Q 3566 888 3137 398 
Q 2709 -91 1959 -91 
Q 1206 -91 779 398 
Q 353 888 353 1747 
Q 353 2609 779 3096 
Q 1206 3584 1959 3584 
z
" transform="scale(0.015625)"/>
       <path id="DejaVuSans-66" d="M 2375 4863 
L 2375 4384 
L 1825 4384 
Q 1516 4384 1395 4259 
Q 1275 4134 1275 3809 
L 1275 3500 
L 2222 3500 
L 2222 3053 
L 1275 3053 
L 1275 0 
L 697 0 
L 697 3053 
L 147 3053 
L 147 3500 
L 697 3500 
L 697 3744 
Q 697 4328 969 4595 
Q 1241 4863 1831 4863 
L 2375 4863 
z
" transform="scale(0.015625)"/>
       <path id="DejaVuSans-73" d="M 2834 3397 
L 2834 2853 
Q 2591 2978 2328 3040 
Q 2066 3103 1784 3103 
Q 1356 3103 1142 2972 
Q 928 2841 928 2578 
Q 928 2378 1081 2264 
Q 1234 2150 1697 2047 
L 1894 2003 
Q 2506 1872 2764 1633 
Q 3022 1394 3022 966 
Q 3022 478 2636 193 
Q 2250 -91 1575 -91 
Q 1294 -91 989 -36 
Q 684 19 347 128 
L 347 722 
Q 666 556 975 473 
Q 1284 391 1588 391 
Q 1994 391 2212 530 
Q 2431 669 2431 922 
Q 2431 1156 2273 1281 
Q 2116 1406 1581 1522 
L 1381 1569 
Q 847 1681 609 1914 
Q 372 2147 372 2553 
Q 372 3047 722 3315 
Q 1072 3584 1716 3584 
Q 2034 3584 2315 3537 
Q 2597 3491 2834 3397 
z
" transform="scale(0.015625)"/>
       <path id="DejaVuSans-61" d="M 2194 1759 
Q 1497 1759 1228 1600 
Q 959 1441 959 1056 
Q 959 750 1161 570 
Q 1363 391 1709 391 
Q 2188 391 2477 730 
Q 2766 1069 2766 1631 
L 2766 1759 
L 2194 1759 
z
M 3341 1997 
L 3341 0 
L 2766 0 
L 2766 531 
Q 2569 213 2275 61 
Q 1981 -91 1556 -91 
Q 1019 -91 701 211 
Q 384 513 384 1019 
Q 384 1609 779 1909 
Q 1175 2209 1959 2209 
L 2766 2209 
L 2766 2266 
Q 2766 2663 2505 2880 
Q 2244 3097 1772 3097 
Q 1472 3097 1187 3025 
Q 903 2953 641 2809 
L 641 3341 
Q 956 3463 1253 3523 
Q 1550 3584 1831 3584 
Q 2591 3584 2966 3190 
Q 3341 2797 3341 1997 
z
" transform="scale(0.015625)"/>
       <path id="DejaVuSans-70" d="M 1159 525 
L 1159 -1331 
L 581 -1331 
L 581 3500 
L 1159 3500 
L 1159 2969 
Q 1341 3281 1617 3432 
Q 1894 3584 2278 3584 
Q 2916 3584 3314 3078 
Q 3713 2572 3713 1747 
Q 3713 922 3314 415 
Q 2916 -91 2278 -91 
Q 1894 -91 1617 61 
Q 1341 213 1159 525 
z
M 3116 1747 
Q 3116 2381 2855 2742 
Q 2594 3103 2138 3103 
Q 1681 3103 1420 2742 
Q 1159 2381 1159 1747 
Q 1159 1113 1420 752 
Q 1681 391 2138 391 
Q 2594 391 2855 752 
Q 3116 1113 3116 1747 
z
" transform="scale(0.015625)"/>
       <path id="DejaVuSans-6c" d="M 603 4863 
L 1178 4863 
L 1178 0 
L 603 0 
L 603 4863 
z
" transform="scale(0.015625)"/>
      </defs>
      <use xlink:href="#DejaVuSans-4e"/>
      <use xlink:href="#DejaVuSans-75" x="74.804688"/>
      <use xlink:href="#DejaVuSans-6d" x="138.183594"/>
      <use xlink:href="#DejaVuSans-62" x="235.595703"/>
      <use xlink:href="#DejaVuSans-65" x="299.072266"/>
      <use xlink:href="#DejaVuSans-72" x="360.595703"/>
      <use xlink:href="#DejaVuSans-20" x="401.708984"/>
      <use xlink:href="#DejaVuSans-6f" x="433.496094"/>
      <use xlink:href="#DejaVuSans-66" x="494.677734"/>
      <use xlink:href="#DejaVuSans-20" x="529.882812"/>
      <use xlink:href="#DejaVuSans-73" x="561.669922"/>
      <use xlink:href="#DejaVuSans-61" x="613.769531"/>
      <use xlink:href="#DejaVuSans-6d" x="675.048828"/>
      <use xlink:href="#DejaVuSans-70" x="772.460938"/>
      <use xlink:href="#DejaVuSans-6c" x="835.9375"/>
      <use xlink:href="#DejaVuSans-65" x="863.720703"/>
      <use xlink:href="#DejaVuSans-73" x="925.244141"/>
     </g>
    </g>
   </g>
   <g id="matplotlib.axis_2">
    <g id="ytick_1">
     <g id="line2d_8">
      <defs>
       <path id="mcb0650e814" d="M 0 0 
L -9 0 
" style="stroke: #000000; stroke-width: 1.875"/>
      </defs>
      <g>
       <use xlink:href="#mcb0650e814" x="72.615" y="491.04" style="stroke: #000000; stroke-width: 1.875"/>
      </g>
     </g>
     <g id="text_9">
      <!-- 0 -->
      <g transform="translate(49.616875 497.308711)scale(0.165 -0.165)">
       <use xlink:href="#DejaVuSans-30"/>
      </g>
     </g>
    </g>
    <g id="ytick_2">
     <g id="line2d_9">
      <g>
       <use xlink:href="#mcb0650e814" x="72.615" y="427.68" style="stroke: #000000; stroke-width: 1.875"/>
      </g>
     </g>
     <g id="text_10">
      <!-- 50 -->
      <g transform="translate(39.11875 433.948711)scale(0.165 -0.165)">
       <defs>
        <path id="DejaVuSans-35" d="M 691 4666 
L 3169 4666 
L 3169 4134 
L 1269 4134 
L 1269 2991 
Q 1406 3038 1543 3061 
Q 1681 3084 1819 3084 
Q 2600 3084 3056 2656 
Q 3513 2228 3513 1497 
Q 3513 744 3044 326 
Q 2575 -91 1722 -91 
Q 1428 -91 1123 -41 
Q 819 9 494 109 
L 494 744 
Q 775 591 1075 516 
Q 1375 441 1709 441 
Q 2250 441 2565 725 
Q 2881 1009 2881 1497 
Q 2881 1984 2565 2268 
Q 2250 2553 1709 2553 
Q 1456 2553 1204 2497 
Q 953 2441 691 2322 
L 691 4666 
z
" transform="scale(0.015625)"/>
       </defs>
       <use xlink:href="#DejaVuSans-35"/>
       <use xlink:href="#DejaVuSans-30" x="63.623047"/>
      </g>
     </g>
    </g>
    <g id="ytick_3">
     <g id="line2d_10">
      <g>
       <use xlink:href="#mcb0650e814" x="72.615" y="364.32" style="stroke: #000000; stroke-width: 1.875"/>
      </g>
     </g>
     <g id="text_11">
      <!-- 100 -->
      <g transform="translate(28.620625 370.588711)scale(0.165 -0.165)">
       <use xlink:href="#DejaVuSans-31"/>
       <use xlink:href="#DejaVuSans-30" x="63.623047"/>
       <use xlink:href="#DejaVuSans-30" x="127.246094"/>
      </g>
     </g>
    </g>
    <g id="ytick_4">
     <g id="line2d_11">
      <g>
       <use xlink:href="#mcb0650e814" x="72.615" y="300.96" style="stroke: #000000; stroke-width: 1.875"/>
      </g>
     </g>
     <g id="text_12">
      <!-- 150 -->
      <g transform="translate(28.620625 307.228711)scale(0.165 -0.165)">
       <use xlink:href="#DejaVuSans-31"/>
       <use xlink:href="#DejaVuSans-35" x="63.623047"/>
       <use xlink:href="#DejaVuSans-30" x="127.246094"/>
      </g>
     </g>
    </g>
    <g id="ytick_5">
     <g id="line2d_12">
      <g>
       <use xlink:href="#mcb0650e814" x="72.615" y="237.6" style="stroke: #000000; stroke-width: 1.875"/>
      </g>
     </g>
     <g id="text_13">
      <!-- 200 -->
      <g transform="translate(28.620625 243.868711)scale(0.165 -0.165)">
       <use xlink:href="#DejaVuSans-32"/>
       <use xlink:href="#DejaVuSans-30" x="63.623047"/>
       <use xlink:href="#DejaVuSans-30" x="127.246094"/>
      </g>
     </g>
    </g>
    <g id="ytick_6">
     <g id="line2d_13">
      <g>
       <use xlink:href="#mcb0650e814" x="72.615" y="174.24" style="stroke: #000000; stroke-width: 1.875"/>
      </g>
     </g>
     <g id="text_14">
      <!-- 250 -->
      <g transform="translate(28.620625 180.508711)scale(0.165 -0.165)">
       <use xlink:href="#DejaVuSans-32"/>
       <use xlink:href="#DejaVuSans-35" x="63.623047"/>
       <use xlink:href="#DejaVuSans-30" x="127.246094"/>
      </g>
     </g>
    </g>
    <g id="ytick_7">
     <g id="line2d_14">
      <g>
       <use xlink:href="#mcb0650e814" x="72.615" y="110.88" style="stroke: #000000; stroke-width: 1.875"/>
      </g>
     </g>
     <g id="text_15">
      <!-- 300 -->
      <g transform="translate(28.620625 117.148711)scale(0.165 -0.165)">
       <defs>
        <path id="DejaVuSans-33" d="M 2597 2516 
Q 3050 2419 3304 2112 
Q 3559 1806 3559 1356 
Q 3559 666 3084 287 
Q 2609 -91 1734 -91 
Q 1441 -91 1130 -33 
Q 819 25 488 141 
L 488 750 
Q 750 597 1062 519 
Q 1375 441 1716 441 
Q 2309 441 2620 675 
Q 2931 909 2931 1356 
Q 2931 1769 2642 2001 
Q 2353 2234 1838 2234 
L 1294 2234 
L 1294 2753 
L 1863 2753 
Q 2328 2753 2575 2939 
Q 2822 3125 2822 3475 
Q 2822 3834 2567 4026 
Q 2313 4219 1838 4219 
Q 1578 4219 1281 4162 
Q 984 4106 628 3988 
L 628 4550 
Q 988 4650 1302 4700 
Q 1616 4750 1894 4750 
Q 2613 4750 3031 4423 
Q 3450 4097 3450 3541 
Q 3450 3153 3228 2886 
Q 3006 2619 2597 2516 
z
" transform="scale(0.015625)"/>
       </defs>
       <use xlink:href="#DejaVuSans-33"/>
       <use xlink:href="#DejaVuSans-30" x="63.623047"/>
       <use xlink:href="#DejaVuSans-30" x="127.246094"/>
      </g>
     </g>
    </g>
    <g id="ytick_8">
     <g id="line2d_15">
      <g>
       <use xlink:href="#mcb0650e814" x="72.615" y="47.52" style="stroke: #000000; stroke-width: 1.875"/>
      </g>
     </g>
     <g id="text_16">
      <!-- 350 -->
      <g transform="translate(28.620625 53.788711)scale(0.165 -0.165)">
       <use xlink:href="#DejaVuSans-33"/>
       <use xlink:href="#DejaVuSans-35" x="63.623047"/>
       <use xlink:href="#DejaVuSans-30" x="127.246094"/>
      </g>
     </g>
    </g>
    <g id="text_17">
     <!-- Number of smORFs (millions) -->
     <g transform="translate(20.877188 401.038594)rotate(-90)scale(0.18 -0.18)">
      <defs>
       <path id="DejaVuSans-4f" d="M 2522 4238 
Q 1834 4238 1429 3725 
Q 1025 3213 1025 2328 
Q 1025 1447 1429 934 
Q 1834 422 2522 422 
Q 3209 422 3611 934 
Q 4013 1447 4013 2328 
Q 4013 3213 3611 3725 
Q 3209 4238 2522 4238 
z
M 2522 4750 
Q 3503 4750 4090 4092 
Q 4678 3434 4678 2328 
Q 4678 1225 4090 567 
Q 3503 -91 2522 -91 
Q 1538 -91 948 565 
Q 359 1222 359 2328 
Q 359 3434 948 4092 
Q 1538 4750 2522 4750 
z
" transform="scale(0.015625)"/>
       <path id="DejaVuSans-52" d="M 2841 2188 
Q 3044 2119 3236 1894 
Q 3428 1669 3622 1275 
L 4263 0 
L 3584 0 
L 2988 1197 
Q 2756 1666 2539 1819 
Q 2322 1972 1947 1972 
L 1259 1972 
L 1259 0 
L 628 0 
L 628 4666 
L 2053 4666 
Q 2853 4666 3247 4331 
Q 3641 3997 3641 3322 
Q 3641 2881 3436 2590 
Q 3231 2300 2841 2188 
z
M 1259 4147 
L 1259 2491 
L 2053 2491 
Q 2509 2491 2742 2702 
Q 2975 2913 2975 3322 
Q 2975 3731 2742 3939 
Q 2509 4147 2053 4147 
L 1259 4147 
z
" transform="scale(0.015625)"/>
       <path id="DejaVuSans-46" d="M 628 4666 
L 3309 4666 
L 3309 4134 
L 1259 4134 
L 1259 2759 
L 3109 2759 
L 3109 2228 
L 1259 2228 
L 1259 0 
L 628 0 
L 628 4666 
z
" transform="scale(0.015625)"/>
       <path id="DejaVuSans-28" d="M 1984 4856 
Q 1566 4138 1362 3434 
Q 1159 2731 1159 2009 
Q 1159 1288 1364 580 
Q 1569 -128 1984 -844 
L 1484 -844 
Q 1016 -109 783 600 
Q 550 1309 550 2009 
Q 550 2706 781 3412 
Q 1013 4119 1484 4856 
L 1984 4856 
z
" transform="scale(0.015625)"/>
       <path id="DejaVuSans-69" d="M 603 3500 
L 1178 3500 
L 1178 0 
L 603 0 
L 603 3500 
z
M 603 4863 
L 1178 4863 
L 1178 4134 
L 603 4134 
L 603 4863 
z
" transform="scale(0.015625)"/>
       <path id="DejaVuSans-6e" d="M 3513 2113 
L 3513 0 
L 2938 0 
L 2938 2094 
Q 2938 2591 2744 2837 
Q 2550 3084 2163 3084 
Q 1697 3084 1428 2787 
Q 1159 2491 1159 1978 
L 1159 0 
L 581 0 
L 581 3500 
L 1159 3500 
L 1159 2956 
Q 1366 3272 1645 3428 
Q 1925 3584 2291 3584 
Q 2894 3584 3203 3211 
Q 3513 2838 3513 2113 
z
" transform="scale(0.015625)"/>
       <path id="DejaVuSans-29" d="M 513 4856 
L 1013 4856 
Q 1481 4119 1714 3412 
Q 1947 2706 1947 2009 
Q 1947 1309 1714 600 
Q 1481 -109 1013 -844 
L 513 -844 
Q 928 -128 1133 580 
Q 1338 1288 1338 2009 
Q 1338 2731 1133 3434 
Q 928 4138 513 4856 
z
" transform="scale(0.015625)"/>
      </defs>
      <use xlink:href="#DejaVuSans-4e"/>
      <use xlink:href="#DejaVuSans-75" x="74.804688"/>
      <use xlink:href="#DejaVuSans-6d" x="138.183594"/>
      <use xlink:href="#DejaVuSans-62" x="235.595703"/>
      <use xlink:href="#DejaVuSans-65" x="299.072266"/>
      <use xlink:href="#DejaVuSans-72" x="360.595703"/>
      <use xlink:href="#DejaVuSans-20" x="401.708984"/>
      <use xlink:href="#DejaVuSans-6f" x="433.496094"/>
      <use xlink:href="#DejaVuSans-66" x="494.677734"/>
      <use xlink:href="#DejaVuSans-20" x="529.882812"/>
      <use xlink:href="#DejaVuSans-73" x="561.669922"/>
      <use xlink:href="#DejaVuSans-6d" x="613.769531"/>
      <use xlink:href="#DejaVuSans-4f" x="711.181641"/>
      <use xlink:href="#DejaVuSans-52" x="789.892578"/>
      <use xlink:href="#DejaVuSans-46" x="859.375"/>
      <use xlink:href="#DejaVuSans-73" x="916.894531"/>
      <use xlink:href="#DejaVuSans-20" x="968.994141"/>
      <use xlink:href="#DejaVuSans-28" x="1000.78125"/>
      <use xlink:href="#DejaVuSans-6d" x="1039.794922"/>
      <use xlink:href="#DejaVuSans-69" x="1137.207031"/>
      <use xlink:href="#DejaVuSans-6c" x="1164.990234"/>
      <use xlink:href="#DejaVuSans-6c" x="1192.773438"/>
      <use xlink:href="#DejaVuSans-69" x="1220.556641"/>
      <use xlink:href="#DejaVuSans-6f" x="1248.339844"/>
      <use xlink:href="#DejaVuSans-6e" x="1309.521484"/>
      <use xlink:href="#DejaVuSans-73" x="1372.900391"/>
      <use xlink:href="#DejaVuSans-29" x="1425"/>
     </g>
    </g>
   </g>
   <g id="line2d_16">
    <path d="M 72.6801 491.03691 
L 76.3257 490.695319 
L 78.7995 490.437551 
L 82.8357 490.124435 
L 91.8846 489.465537 
L 95.4 489.238493 
L 131.5956 487.394527 
L 131.5956 487.394527 
" clip-path="url(#pe0110cfd78)" style="fill: none; stroke: #98d7d9; stroke-width: 2.25; stroke-linecap: square"/>
   </g>
   <g id="line2d_17">
    <path d="M 72.6801 490.882318 
L 73.1358 489.919182 
L 75.6747 485.563698 
L 76.3257 484.585377 
L 76.9767 483.512828 
L 78.1485 481.770629 
L 82.0545 477.13035 
L 87.0672 471.673703 
L 88.239 470.530811 
L 89.0853 469.677809 
L 91.1034 467.835124 
L 91.8195 467.182457 
L 92.9262 466.14396 
L 95.2047 464.119362 
L 95.7906 463.606315 
L 98.004 461.70931 
L 98.9154 460.897858 
L 99.6315 460.269241 
L 103.4724 457.234496 
L 107.7039 453.964272 
L 108.4851 453.453811 
L 111.1542 451.579797 
L 114.2139 449.419923 
L 115.8414 448.239172 
L 125.4111 442.196948 
L 126.3225 441.642192 
L 127.8198 440.71657 
L 129.4473 439.701755 
L 133.8741 437.029979 
L 134.2647 436.771666 
L 134.9157 436.389705 
L 141.1002 432.727712 
L 141.8814 432.319825 
L 143.0532 431.622422 
L 145.0713 430.5358 
L 147.6102 429.134872 
L 148.2612 428.739736 
L 150.9303 427.277298 
L 151.5162 426.955087 
L 153.5343 425.90676 
L 154.5759 425.339932 
L 155.6175 424.804862 
L 161.9973 421.453906 
L 163.5597 420.643897 
L 165.8382 419.436534 
L 167.3355 418.607826 
L 170.7858 416.817034 
L 172.0878 416.171855 
L 173.4549 415.432341 
L 175.6683 414.333729 
L 176.8401 413.746094 
L 180.9414 411.774832 
L 182.1783 411.137386 
L 183.8709 410.312446 
L 184.8474 409.819038 
L 185.1729 409.665051 
L 185.1729 409.665051 
" clip-path="url(#pe0110cfd78)" style="fill: none; stroke: #fec008; stroke-width: 2.25; stroke-linecap: square"/>
   </g>
   <g id="line2d_18">
    <path d="M 72.6801 490.958793 
L 73.4613 490.109706 
L 73.8519 489.780574 
L 75.2841 488.128338 
L 77.4975 486.107215 
L 77.823 485.82074 
L 78.4089 485.11833 
L 81.8592 482.127687 
L 82.1847 481.911615 
L 82.6404 481.552632 
L 83.4867 480.829959 
L 83.7471 480.615071 
L 84.5934 480.005784 
L 84.984 479.686088 
L 87.0672 477.92978 
L 87.588 477.526135 
L 87.7833 477.240015 
L 88.89 476.128987 
L 89.1504 475.92426 
L 89.8665 475.281425 
L 90.7779 474.561515 
L 92.6007 472.981466 
L 92.8611 472.825744 
L 93.6423 472.253577 
L 96.8322 469.968045 
L 97.2228 469.749404 
L 97.4181 469.543916 
L 97.7436 469.348203 
L 98.4597 468.844351 
L 98.655 468.692224 
L 99.3711 468.12029 
L 100.2825 467.400313 
L 100.5429 467.231395 
L 101.3241 466.719826 
L 102.2355 466.158775 
L 102.4959 466.000084 
L 102.8865 465.695006 
L 107.0529 463.053688 
L 107.3784 462.830525 
L 110.1126 461.008222 
L 111.1542 460.465966 
L 112.0005 459.918104 
L 116.883 457.094345 
L 117.1434 456.940425 
L 119.6823 455.447537 
L 120.0078 455.236521 
L 120.8541 454.695447 
L 121.2447 454.468357 
L 122.4816 453.761059 
L 122.8071 453.533525 
L 124.2393 452.721418 
L 124.5648 452.578011 
L 126.3876 451.641209 
L 127.2339 451.187702 
L 127.8849 450.805845 
L 132.3768 448.483839 
L 132.9627 448.140438 
L 133.4184 447.907033 
L 134.0043 447.588136 
L 134.3298 447.398914 
L 134.6553 447.20968 
L 135.6318 446.709882 
L 135.9573 446.518107 
L 136.5432 446.301598 
L 137.8452 445.608199 
L 138.6264 445.140744 
L 139.8633 444.450495 
L 140.5794 444.119454 
L 144.0948 442.352445 
L 144.4854 442.172933 
L 145.7874 441.525375 
L 146.5035 441.116095 
L 146.9592 440.864709 
L 149.0424 439.99918 
L 150.2142 439.454144 
L 152.037 438.646739 
L 153.2088 438.096084 
L 153.7296 437.840537 
L 157.6356 435.975495 
L 158.7423 435.552168 
L 159.2631 435.313787 
L 159.849 435.106262 
L 160.3047 434.929484 
L 161.0859 434.545596 
L 161.6067 434.367112 
L 163.104 433.767767 
L 163.6248 433.498457 
L 164.6664 433.053463 
L 165.5778 432.719673 
L 166.9449 432.202607 
L 167.3355 432.060171 
L 168.5724 431.582513 
L 169.5489 431.135873 
L 170.1348 430.948283 
L 171.2415 430.504497 
L 171.6321 430.339846 
L 172.5435 429.970918 
L 173.1945 429.721063 
L 174.171 429.326796 
L 174.171 429.326796 
" clip-path="url(#pe0110cfd78)" style="fill: none; stroke: #024a5c; stroke-width: 2.25; stroke-linecap: square"/>
   </g>
   <g id="line2d_19">
    <path d="M 72.6801 490.983371 
L 73.0707 490.135806 
L 73.5915 488.8392 
L 73.7868 488.450961 
L 74.1123 487.655254 
L 74.568 486.707806 
L 75.0237 485.561825 
L 75.2841 484.979209 
L 75.8049 483.847817 
L 76.1304 483.176248 
L 76.9116 481.314881 
L 77.172 480.713396 
L 77.4324 480.223963 
L 77.823 479.218262 
L 78.1485 478.499191 
L 78.6042 477.486292 
L 79.1901 476.600591 
L 79.4505 475.737158 
L 82.1196 469.739525 
L 82.8357 468.394485 
L 83.0961 467.671755 
L 83.4216 467.173912 
L 83.7471 466.48513 
L 84.5934 464.413907 
L 85.4397 462.493008 
L 85.5699 462.189348 
L 86.2209 460.638658 
L 87.1974 458.736496 
L 87.4578 458.270293 
L 88.4994 455.991845 
L 89.1504 454.58494 
L 89.3457 454.089175 
L 89.4759 453.829673 
L 90.3873 451.814393 
L 91.5591 449.6307 
L 92.2101 448.048641 
L 94.5537 443.456062 
L 94.9443 442.766054 
L 96.3765 439.76623 
L 96.6369 439.333633 
L 97.6134 437.335274 
L 98.3295 435.711584 
L 99.1107 434.292429 
L 101.3241 429.701345 
L 101.91 428.573444 
L 103.2771 425.68589 
L 103.5375 425.00526 
L 104.1234 423.676793 
L 104.4489 423.05502 
L 105.5556 420.902786 
L 106.0113 420.024174 
L 106.3368 419.466197 
L 109.4616 413.896834 
L 109.8522 413.152154 
L 109.9824 412.941741 
L 110.4381 412.020605 
L 111.0891 410.965245 
L 111.2844 410.648502 
L 111.675 409.886787 
L 112.7817 407.926494 
L 113.3676 407.049565 
L 115.7763 402.701429 
L 116.232 401.870026 
L 116.7528 401.014729 
L 117.0132 400.562624 
L 117.4689 399.831701 
L 118.9662 396.857813 
L 119.3568 396.200512 
L 119.6172 395.764089 
L 119.8776 395.401648 
L 120.2682 394.760897 
L 120.6588 394.215395 
L 122.3514 391.330757 
L 122.6769 390.656072 
L 123.8487 388.54122 
L 124.5648 387.119098 
L 124.8252 386.766404 
L 127.7547 381.681962 
L 128.0151 381.267004 
L 128.7312 380.150145 
L 128.9916 379.796409 
L 129.252 379.360189 
L 129.5124 379.043818 
L 130.3587 377.657254 
L 130.8144 376.742912 
L 130.8795 376.717131 
L 131.4654 375.633801 
L 131.856 375.026035 
L 132.1164 374.509684 
L 132.5721 373.718323 
L 132.8976 373.163826 
L 133.809 371.696844 
L 137.064 366.448354 
L 137.6499 365.454942 
L 138.366 364.357061 
L 138.8868 363.438424 
L 139.2123 362.831798 
L 139.7982 362.032124 
L 140.2539 361.370445 
L 140.8398 360.316099 
L 144.0297 355.432726 
L 144.2901 355.078496 
L 145.9827 352.462497 
L 146.829 351.166663 
L 147.0243 350.813329 
L 147.6102 349.87659 
L 147.8055 349.629719 
L 148.5867 348.582764 
L 149.3028 347.465024 
L 149.6283 346.925288 
L 151.1907 344.352505 
L 151.5813 343.733025 
L 152.1021 342.830941 
L 153.0135 341.535144 
L 153.2739 341.039081 
L 153.4692 340.709007 
L 153.8598 340.134596 
L 154.1853 339.47583 
L 154.7061 338.64486 
L 154.9665 338.209023 
L 155.4873 337.306876 
L 156.0081 336.536611 
L 157.5705 334.408732 
L 157.7658 334.111551 
L 158.2866 333.27045 
L 158.6772 332.724143 
L 159.0678 332.014696 
L 159.3282 331.632665 
L 159.7188 330.973102 
L 159.9141 330.689872 
L 161.2812 328.731249 
L 161.6718 328.238578 
L 161.9973 327.707205 
L 162.3228 327.251725 
L 162.9738 326.006663 
L 163.6899 325.25524 
L 164.2758 324.222341 
L 164.9268 323.31732 
L 165.1221 323.036861 
L 165.7731 321.885269 
L 169.0932 317.029851 
L 169.5489 316.2902 
L 170.6556 314.732499 
L 171.3066 313.627178 
L 171.4368 313.494185 
L 171.8925 312.816902 
L 172.6086 311.839722 
L 173.1294 310.894192 
L 173.3247 310.712739 
L 173.52 310.473682 
L 173.7804 310.00675 
L 173.9106 309.834773 
L 175.0824 307.929504 
L 179.2488 302.058127 
L 179.5743 301.487441 
L 179.8347 301.09153 
L 180.1602 300.709426 
L 180.4206 300.356469 
L 181.332 298.73657 
L 181.4622 298.546037 
L 181.7226 298.061447 
L 182.0481 297.543831 
L 182.4387 296.893304 
L 183.4152 295.539279 
L 184.3266 294.185024 
L 184.6521 293.712384 
L 185.6937 292.217079 
L 185.8239 292.081933 
L 186.54 290.882855 
L 186.8004 290.498658 
L 188.2977 288.377639 
L 188.6232 287.915685 
L 189.5346 286.786116 
L 189.9252 286.10123 
L 190.3158 285.600251 
L 191.4225 284.21381 
L 191.748 283.818475 
L 193.1802 281.67016 
L 193.5057 281.298991 
L 193.7661 281.041453 
L 194.0265 280.710578 
L 194.4171 280.063697 
L 196.6305 277.074907 
L 197.1513 276.351164 
L 197.4117 276.07027 
L 197.7372 275.455301 
L 198.0627 275.014893 
L 198.5835 274.36053 
L 199.0392 273.75796 
L 199.3647 273.299102 
L 199.6902 272.791836 
L 200.0808 272.252333 
L 200.4063 271.806015 
L 201.1875 270.756781 
L 204.1821 266.687724 
L 205.2237 265.203843 
L 205.4841 264.878013 
L 205.8096 264.47078 
L 208.023 261.605947 
L 210.7572 258.064945 
L 211.2129 257.504848 
L 211.5384 257.05589 
L 212.4498 255.746136 
L 212.8404 255.220431 
L 213.3612 254.661239 
L 213.882 253.916582 
L 214.9887 252.4717 
L 215.184 252.308981 
L 215.6397 251.661405 
L 215.9652 251.313832 
L 216.2256 250.995489 
L 221.043 244.800062 
L 221.3034 244.462891 
L 221.5638 244.152473 
L 222.0195 243.545759 
L 227.8785 236.574714 
L 228.1389 236.292865 
L 228.4644 235.777539 
L 228.9201 235.335521 
L 229.2456 234.803044 
L 229.6362 234.25785 
L 232.0449 231.222396 
L 232.5006 230.745324 
L 233.0214 230.069621 
L 236.4066 226.041224 
L 236.6019 225.834324 
L 237.4482 224.736249 
L 240.8985 220.743556 
L 241.1589 220.405569 
L 244.0233 217.274317 
L 245.13 216.149436 
L 245.4555 215.76969 
L 245.781 215.317215 
L 246.0414 214.924138 
L 247.734 212.786254 
L 247.9944 212.493007 
L 248.1897 212.321472 
L 248.6454 211.749615 
L 249.1011 211.290173 
L 250.0776 210.321777 
L 251.7051 208.554339 
L 252.0957 208.021559 
L 252.6816 207.483254 
L 253.1373 206.954781 
L 254.1138 206.03637 
L 254.7648 205.292358 
L 255.4158 204.499621 
L 256.1319 203.678173 
L 256.5876 203.220522 
L 256.7829 203.050075 
L 257.1735 202.679095 
L 257.4339 202.405255 
L 257.7594 202.005242 
L 258.5406 201.272106 
L 258.8661 200.890597 
L 259.0614 200.676993 
L 259.2567 200.471676 
L 259.6473 199.948733 
L 261.8607 197.502837 
L 262.1211 197.191081 
L 262.4466 196.813142 
L 264.009 195.185349 
L 264.5298 194.605311 
L 264.7251 194.40427 
L 265.6365 193.421962 
L 266.2875 192.709752 
L 266.5479 192.4275 
L 267.4593 191.416979 
L 267.7197 191.163923 
L 268.4358 190.414599 
L 270.3237 188.40123 
L 270.5841 188.137662 
L 271.0398 187.717886 
L 271.4304 187.226128 
L 271.6908 186.805609 
L 272.2116 186.218174 
L 275.076 183.019709 
L 277.0941 180.844604 
L 278.2008 179.726138 
L 278.7216 179.240976 
L 281.2605 176.798488 
L 281.9766 175.92039 
L 282.8229 175.356483 
L 284.9712 173.15613 
L 285.5571 172.501928 
L 287.7054 170.432517 
L 288.3564 169.722061 
L 288.5517 169.53827 
L 289.1376 168.811052 
L 289.6584 168.301742 
L 290.3745 167.487739 
L 291.2208 166.581498 
L 295.4523 162.408989 
L 295.9731 161.938675 
L 297.3402 160.578198 
L 297.9261 159.955752 
L 306.3891 151.859939 
L 306.7146 151.546976 
L 308.6025 149.901268 
L 309.6441 148.898103 
L 310.0347 148.518411 
L 310.2951 148.215531 
L 313.4199 145.313121 
L 314.0709 144.773362 
L 316.6749 142.376416 
L 317.1957 141.995538 
L 317.5212 141.661074 
L 319.2789 139.991678 
L 319.7997 139.608548 
L 320.1903 139.241984 
L 320.5809 138.887275 
L 323.9661 135.760796 
L 324.2916 135.444669 
L 325.4634 134.352407 
L 326.1144 133.599832 
L 326.4399 133.281257 
L 327.9372 131.950098 
L 328.2627 131.582848 
L 328.6533 131.23796 
L 329.76 130.225749 
L 331.713 128.364371 
L 332.1036 128.093208 
L 332.5593 127.631387 
L 333.7311 126.69423 
L 334.7727 125.846737 
L 335.2935 125.495859 
L 336.0096 124.891496 
L 336.6606 124.208724 
L 337.572 123.480673 
L 338.3532 122.934706 
L 339.3297 122.008461 
L 339.6552 121.637168 
L 339.9156 121.372283 
L 340.6317 120.694272 
L 341.9988 119.40562 
L 342.3243 119.137722 
L 342.7149 118.748757 
L 343.5612 117.958426 
L 344.3424 117.340262 
L 344.9934 116.805546 
L 345.3189 116.455159 
L 345.7746 115.97828 
L 346.035 115.755374 
L 346.4907 115.280765 
L 346.7511 115.028134 
L 348.1833 113.989864 
L 348.4437 113.801956 
L 348.8994 113.373709 
L 349.1598 113.15984 
L 349.4853 112.867189 
L 349.8759 112.574739 
L 350.6571 111.960798 
L 351.243 111.522101 
L 351.5685 111.218887 
L 352.0893 110.664063 
L 352.4148 110.426073 
L 352.6752 110.213651 
L 353.0658 109.874351 
L 355.8 107.492562 
L 356.9718 106.599361 
L 359.706 104.250604 
L 360.4221 103.551552 
L 360.7476 103.230564 
L 367.6482 97.553477 
L 367.6482 97.553477 
" clip-path="url(#pe0110cfd78)" style="fill: none; stroke: #028f00; stroke-width: 2.25; stroke-linecap: square"/>
   </g>
   <g id="line2d_20">
    <path d="M 72.6801 490.902026 
L 73.6566 488.432373 
L 74.9586 485.293995 
L 75.3492 484.535043 
L 76.7814 481.54113 
L 76.9767 481.165554 
L 77.4975 480.033652 
L 77.5626 479.994199 
L 78.0183 478.940301 
L 78.474 478.171558 
L 78.5391 478.076575 
L 78.7344 477.540658 
L 79.0599 476.908068 
L 79.8411 475.559215 
L 80.2968 474.658978 
L 80.7525 473.878656 
L 82.0545 471.438709 
L 82.7055 470.155054 
L 82.8357 470.024497 
L 83.0961 469.367973 
L 83.2263 469.22915 
L 83.6169 468.448823 
L 84.0075 467.661084 
L 84.5934 466.297179 
L 85.2444 465.123351 
L 89.6712 457.4108 
L 90.192 456.682048 
L 90.4524 456.094789 
L 90.9732 455.302434 
L 91.3638 454.404458 
L 92.2752 453.210861 
L 92.6658 452.561241 
L 92.9913 451.964758 
L 93.5121 451.092207 
L 95.0745 448.578144 
L 95.3349 448.078404 
L 95.8557 447.554352 
L 96.6369 446.315437 
L 96.7671 446.195759 
L 97.0275 445.818965 
L 97.8738 444.410654 
L 98.1993 443.840203 
L 99.3711 442.329625 
L 99.5664 441.983171 
L 99.8268 441.61451 
L 100.3476 440.802588 
L 100.7382 440.181134 
L 101.7798 438.715464 
L 103.1469 436.784606 
L 103.4073 436.418171 
L 103.6677 436.043829 
L 103.7979 435.901204 
L 104.3838 435.163874 
L 104.7744 434.732003 
L 105.8811 433.148508 
L 106.0113 432.947446 
L 106.5321 432.284738 
L 107.118 431.550398 
L 108.4851 429.753294 
L 108.6153 429.564703 
L 109.6569 428.379947 
L 110.1126 427.885281 
L 110.3079 427.660637 
L 111.0891 426.631244 
L 112.0656 425.167578 
L 112.1958 424.972344 
L 112.3911 424.704555 
L 112.8468 424.198359 
L 114.0837 422.703922 
L 114.4092 422.261372 
L 115.0602 421.415802 
L 115.4508 420.895775 
L 115.581 420.757213 
L 116.1018 420.110683 
L 116.6877 419.359787 
L 117.0132 418.902647 
L 117.4038 418.396906 
L 117.7944 417.958682 
L 118.2501 417.515355 
L 119.2917 416.194133 
L 119.5521 415.969072 
L 120.8541 414.569135 
L 121.2447 414.093066 
L 121.5702 413.729798 
L 123.6534 411.419559 
L 123.9789 410.942373 
L 124.3044 410.627637 
L 125.4111 409.275433 
L 125.8017 408.908981 
L 128.2104 406.280782 
L 129.1869 405.219481 
L 129.4473 404.930151 
L 129.6426 404.698016 
L 129.9681 404.298031 
L 131.2701 402.861193 
L 131.6607 402.489676 
L 131.9211 402.156735 
L 132.2466 401.875158 
L 132.8976 401.157594 
L 133.0929 400.938924 
L 134.3949 399.484041 
L 134.7204 399.189511 
L 135.3714 398.46846 
L 136.0875 397.812926 
L 138.2358 395.988513 
L 138.5613 395.754558 
L 139.9284 394.481843 
L 140.7096 393.667312 
L 141.2304 393.172611 
L 141.4908 392.834588 
L 142.1418 392.186171 
L 143.3787 391.103934 
L 143.7693 390.70085 
L 144.4203 390.209117 
L 144.6156 390.027405 
L 144.6156 390.027405 
" clip-path="url(#pe0110cfd78)" style="fill: none; stroke: #78c48a; stroke-width: 2.25; stroke-linecap: square"/>
   </g>
   <g id="line2d_21">
    <path d="M 72.6801 491.032711 
L 90.1269 489.813591 
L 98.9154 489.336444 
L 104.3187 489.060175 
L 119.6172 488.360875 
L 123.2628 488.209632 
L 138.1707 487.580273 
L 146.4384 487.265923 
L 160.7604 486.715578 
L 162.1926 486.660013 
L 178.728 486.103111 
L 189.7299 485.759155 
L 197.2164 485.529431 
L 197.2164 485.529431 
" clip-path="url(#pe0110cfd78)" style="fill: none; stroke: #c797d0; stroke-width: 2.25; stroke-linecap: square"/>
   </g>
   <g id="line2d_22">
    <path d="M 72.6801 491.028893 
L 78.8646 490.14368 
L 83.6169 489.528128 
L 89.0853 488.917558 
L 106.1415 487.108895 
L 119.4219 485.880133 
L 122.6769 485.586937 
L 139.0821 484.212212 
L 143.0532 483.902289 
L 146.2431 483.64497 
L 176.775 481.385259 
L 194.0916 480.210479 
L 196.5654 480.047378 
L 200.9271 479.780298 
L 211.8639 479.081771 
L 265.2459 475.995341 
L 281.3907 475.119901 
L 284.9712 474.931051 
L 291.6114 474.587234 
L 303.9153 473.988664 
L 350.0712 471.844209 
L 383.793 470.425862 
L 383.793 470.425862 
" clip-path="url(#pe0110cfd78)" style="fill: none; stroke: #000000; stroke-opacity: 0.901961; stroke-width: 2.25; stroke-linecap: square"/>
   </g>
   <g id="line2d_23">
    <path d="M 72.6801 491.005267 
L 74.1774 490.380732 
L 80.3619 488.353216 
L 82.2498 487.829836 
L 94.4235 484.789833 
L 99.8919 483.635485 
L 101.6496 483.280943 
L 105.6207 482.467749 
L 110.0475 481.575316 
L 111.7401 481.252362 
L 114.0837 480.7677 
L 115.1904 480.56057 
L 118.5105 480.022448 
L 120.3333 479.689077 
L 127.5594 478.477676 
L 129.6426 478.130142 
L 132.8325 477.587618 
L 142.7928 476.015431 
L 145.0713 475.669156 
L 150.6699 474.798295 
L 159.4584 473.486623 
L 210.7572 466.642478 
L 213.231 466.333515 
L 215.5095 466.06199 
L 223.1913 465.122783 
L 226.6416 464.725487 
L 232.1751 464.077828 
L 301.4415 456.579932 
L 311.2716 455.579476 
L 314.787 455.227578 
L 333.0801 453.448554 
L 336.1398 453.150895 
L 343.0404 452.496506 
L 347.2068 452.095574 
L 397.6593 447.48389 
L 403.7136 446.933923 
L 407.1639 446.628548 
L 414.3249 446.007417 
L 417.5799 445.701257 
L 424.6107 445.104083 
L 436.3287 444.100139 
L 442.7085 443.595824 
L 448.1769 443.143559 
L 484.4376 440.121616 
L 488.9295 439.746896 
L 499.4757 438.907625 
L 532.9371 436.278253 
L 537.6243 435.90259 
L 540.4236 435.680069 
L 549.0819 435.017207 
L 596.1492 431.448034 
L 604.3518 430.853549 
L 608.9088 430.509108 
L 618.0228 429.834279 
L 636.9669 428.469206 
L 643.3467 428.009412 
L 650.2473 427.505296 
L 710.0091 423.297479 
L 719.058 422.677476 
L 723.1593 422.39917 
L 853.0989 413.929328 
L 853.8801 413.882296 
L 853.8801 413.882296 
" clip-path="url(#pe0110cfd78)" style="fill: none; stroke: #dd861d; stroke-width: 2.25; stroke-linecap: square"/>
   </g>
   <g id="line2d_24">
    <path d="M 72.6801 491.01304 
L 74.1123 490.522355 
L 78.0183 489.377242 
L 81.2733 488.590351 
L 86.6766 487.400184 
L 97.8087 485.314083 
L 103.4724 484.407418 
L 107.4435 483.794736 
L 117.7944 482.317653 
L 127.95 481.012623 
L 141.4257 479.491685 
L 141.6861 479.465059 
L 141.6861 479.465059 
" clip-path="url(#pe0110cfd78)" style="fill: none; stroke: #bf5c97; stroke-width: 2.25; stroke-linecap: square"/>
   </g>
   <g id="line2d_25">
    <path d="M 72.6801 490.946182 
L 74.5029 487.515688 
L 75.0237 486.558955 
L 76.7814 483.511754 
L 77.172 482.728032 
L 77.4975 482.18777 
L 79.1901 479.231 
L 80.4921 477.117911 
L 81.078 476.219494 
L 83.682 471.898368 
L 84.9189 470.034043 
L 88.1088 465.42579 
L 89.9316 462.881835 
L 91.0383 461.252333 
L 92.0148 459.924159 
L 92.5356 459.182359 
L 95.9859 454.381452 
L 97.1577 452.849736 
L 97.7436 452.108936 
L 98.3946 451.31781 
L 99.8268 449.283088 
L 100.7382 448.153769 
L 101.91 446.669474 
L 102.7563 445.580815 
L 103.2771 444.901297 
L 109.722 437.107412 
L 110.0475 436.699537 
L 112.0005 434.229471 
L 112.3911 433.762191 
L 112.977 433.053244 
L 113.8233 432.054175 
L 115.7763 429.696268 
L 116.6877 428.702727 
L 117.5991 427.679045 
L 118.0548 427.157637 
L 121.5051 423.34618 
L 121.8957 422.96001 
L 122.742 421.997593 
L 123.4581 421.08339 
L 123.9138 420.568441 
L 124.4997 419.922869 
L 125.0856 419.301132 
L 126.9735 417.322341 
L 127.4943 416.727664 
L 128.0151 416.088901 
L 128.4708 415.579483 
L 130.1634 413.766621 
L 130.9446 412.87966 
L 131.5956 412.281915 
L 132.4419 411.418899 
L 134.0043 409.832256 
L 134.6553 409.198981 
L 135.111 408.638518 
L 135.6318 408.139142 
L 136.2828 407.428119 
L 138.9519 404.756847 
L 139.9284 403.753995 
L 143.0532 400.675142 
L 144.6156 399.113323 
L 148.1961 395.651802 
L 148.7169 395.15478 
L 150.4746 393.513507 
L 163.8852 381.407623 
L 164.5362 380.830246 
L 165.708 379.759875 
L 177.1005 370.091938 
L 179.1186 368.54035 
L 181.4622 366.720888 
L 182.0481 366.239518 
L 182.8293 365.628496 
L 186.9306 362.370556 
L 187.3863 362.022427 
L 188.2326 361.392887 
L 204.768 348.631316 
L 205.2888 348.270121 
L 208.0881 346.174842 
L 208.674 345.722052 
L 213.882 341.772496 
L 215.5746 340.597174 
L 224.5584 334.171521 
L 225.5349 333.552864 
L 226.4463 332.880606 
L 229.2456 330.938766 
L 229.8315 330.552847 
L 232.2402 329.063225 
L 233.9979 327.827371 
L 238.0341 325.080326 
L 238.5549 324.735921 
L 240.8985 323.326464 
L 242.3958 322.386678 
L 244.8696 320.755199 
L 245.4555 320.361506 
L 264.3996 308.238289 
L 281.1954 297.996625 
L 282.3021 297.358414 
L 283.6041 296.547252 
L 284.19 296.214308 
L 286.9893 294.581745 
L 288.4215 293.778153 
L 289.2027 293.32946 
L 289.7886 293.016363 
L 290.2443 292.759208 
L 308.3421 282.856489 
L 309.4488 282.283746 
L 311.5971 281.191589 
L 312.2481 280.870354 
L 312.2481 280.870354 
" clip-path="url(#pe0110cfd78)" style="fill: none; stroke: #0522bb; stroke-width: 2.25; stroke-linecap: square"/>
   </g>
   <g id="line2d_26"/>
   <g id="line2d_27"/>
   <g id="line2d_28"/>
   <g id="line2d_29"/>
   <g id="line2d_30"/>
   <g id="line2d_31"/>
   <g id="line2d_32"/>
   <g id="line2d_33"/>
   <g id="line2d_34"/>
   <g id="line2d_35"/>
   <g id="patch_3">
    <path d="M 72.615 491.04 
L 72.615 47.52 
" style="fill: none; stroke: #000000; stroke-width: 1.875; stroke-linejoin: miter; stroke-linecap: square"/>
   </g>
   <g id="patch_4">
    <path d="M 72.615 491.04 
L 853.815 491.04 
" style="fill: none; stroke: #000000; stroke-width: 1.875; stroke-linejoin: miter; stroke-linecap: square"/>
   </g>
   <g id="text_18">
    <!-- Built environment -->
    <g transform="translate(383.793 457.753862)scale(0.18 -0.18)">
     <defs>
      <path id="DejaVuSans-42" d="M 1259 2228 
L 1259 519 
L 2272 519 
Q 2781 519 3026 730 
Q 3272 941 3272 1375 
Q 3272 1813 3026 2020 
Q 2781 2228 2272 2228 
L 1259 2228 
z
M 1259 4147 
L 1259 2741 
L 2194 2741 
Q 2656 2741 2882 2914 
Q 3109 3088 3109 3444 
Q 3109 3797 2882 3972 
Q 2656 4147 2194 4147 
L 1259 4147 
z
M 628 4666 
L 2241 4666 
Q 2963 4666 3353 4366 
Q 3744 4066 3744 3513 
Q 3744 3084 3544 2831 
Q 3344 2578 2956 2516 
Q 3422 2416 3680 2098 
Q 3938 1781 3938 1306 
Q 3938 681 3513 340 
Q 3088 0 2303 0 
L 628 0 
L 628 4666 
z
" transform="scale(0.015625)"/>
      <path id="DejaVuSans-74" d="M 1172 4494 
L 1172 3500 
L 2356 3500 
L 2356 3053 
L 1172 3053 
L 1172 1153 
Q 1172 725 1289 603 
Q 1406 481 1766 481 
L 2356 481 
L 2356 0 
L 1766 0 
Q 1100 0 847 248 
Q 594 497 594 1153 
L 594 3053 
L 172 3053 
L 172 3500 
L 594 3500 
L 594 4494 
L 1172 4494 
z
" transform="scale(0.015625)"/>
      <path id="DejaVuSans-76" d="M 191 3500 
L 800 3500 
L 1894 563 
L 2988 3500 
L 3597 3500 
L 2284 0 
L 1503 0 
L 191 3500 
z
" transform="scale(0.015625)"/>
     </defs>
     <use xlink:href="#DejaVuSans-42"/>
     <use xlink:href="#DejaVuSans-75" x="68.603516"/>
     <use xlink:href="#DejaVuSans-69" x="131.982422"/>
     <use xlink:href="#DejaVuSans-6c" x="159.765625"/>
     <use xlink:href="#DejaVuSans-74" x="187.548828"/>
     <use xlink:href="#DejaVuSans-20" x="226.757812"/>
     <use xlink:href="#DejaVuSans-65" x="258.544922"/>
     <use xlink:href="#DejaVuSans-6e" x="320.068359"/>
     <use xlink:href="#DejaVuSans-76" x="383.447266"/>
     <use xlink:href="#DejaVuSans-69" x="442.626953"/>
     <use xlink:href="#DejaVuSans-72" x="470.410156"/>
     <use xlink:href="#DejaVuSans-6f" x="509.273438"/>
     <use xlink:href="#DejaVuSans-6e" x="570.455078"/>
     <use xlink:href="#DejaVuSans-6d" x="633.833984"/>
     <use xlink:href="#DejaVuSans-65" x="731.246094"/>
     <use xlink:href="#DejaVuSans-6e" x="792.769531"/>
     <use xlink:href="#DejaVuSans-74" x="856.148438"/>
    </g>
   </g>
   <g id="text_19">
    <!-- Marine -->
    <g transform="translate(312.2481 268.198354)scale(0.18 -0.18)">
     <defs>
      <path id="DejaVuSans-4d" d="M 628 4666 
L 1569 4666 
L 2759 1491 
L 3956 4666 
L 4897 4666 
L 4897 0 
L 4281 0 
L 4281 4097 
L 3078 897 
L 2444 897 
L 1241 4097 
L 1241 0 
L 628 0 
L 628 4666 
z
" transform="scale(0.015625)"/>
     </defs>
     <use xlink:href="#DejaVuSans-4d"/>
     <use xlink:href="#DejaVuSans-61" x="86.279297"/>
     <use xlink:href="#DejaVuSans-72" x="147.558594"/>
     <use xlink:href="#DejaVuSans-69" x="188.671875"/>
     <use xlink:href="#DejaVuSans-6e" x="216.455078"/>
     <use xlink:href="#DejaVuSans-65" x="279.833984"/>
    </g>
   </g>
   <g id="text_20">
    <!-- Pig gut -->
    <g transform="translate(185.1729 396.993051)scale(0.18 -0.18)">
     <defs>
      <path id="DejaVuSans-50" d="M 1259 4147 
L 1259 2394 
L 2053 2394 
Q 2494 2394 2734 2622 
Q 2975 2850 2975 3272 
Q 2975 3691 2734 3919 
Q 2494 4147 2053 4147 
L 1259 4147 
z
M 628 4666 
L 2053 4666 
Q 2838 4666 3239 4311 
Q 3641 3956 3641 3272 
Q 3641 2581 3239 2228 
Q 2838 1875 2053 1875 
L 1259 1875 
L 1259 0 
L 628 0 
L 628 4666 
z
" transform="scale(0.015625)"/>
      <path id="DejaVuSans-67" d="M 2906 1791 
Q 2906 2416 2648 2759 
Q 2391 3103 1925 3103 
Q 1463 3103 1205 2759 
Q 947 2416 947 1791 
Q 947 1169 1205 825 
Q 1463 481 1925 481 
Q 2391 481 2648 825 
Q 2906 1169 2906 1791 
z
M 3481 434 
Q 3481 -459 3084 -895 
Q 2688 -1331 1869 -1331 
Q 1566 -1331 1297 -1286 
Q 1028 -1241 775 -1147 
L 775 -588 
Q 1028 -725 1275 -790 
Q 1522 -856 1778 -856 
Q 2344 -856 2625 -561 
Q 2906 -266 2906 331 
L 2906 616 
Q 2728 306 2450 153 
Q 2172 0 1784 0 
Q 1141 0 747 490 
Q 353 981 353 1791 
Q 353 2603 747 3093 
Q 1141 3584 1784 3584 
Q 2172 3584 2450 3431 
Q 2728 3278 2906 2969 
L 2906 3500 
L 3481 3500 
L 3481 434 
z
" transform="scale(0.015625)"/>
     </defs>
     <use xlink:href="#DejaVuSans-50"/>
     <use xlink:href="#DejaVuSans-69" x="58.052734"/>
     <use xlink:href="#DejaVuSans-67" x="85.835938"/>
     <use xlink:href="#DejaVuSans-20" x="149.3125"/>
     <use xlink:href="#DejaVuSans-67" x="181.099609"/>
     <use xlink:href="#DejaVuSans-75" x="244.576172"/>
     <use xlink:href="#DejaVuSans-74" x="307.955078"/>
    </g>
   </g>
   <g id="text_21">
    <!-- Soil -->
    <g transform="translate(367.6482 84.881477)scale(0.18 -0.18)">
     <defs>
      <path id="DejaVuSans-53" d="M 3425 4513 
L 3425 3897 
Q 3066 4069 2747 4153 
Q 2428 4238 2131 4238 
Q 1616 4238 1336 4038 
Q 1056 3838 1056 3469 
Q 1056 3159 1242 3001 
Q 1428 2844 1947 2747 
L 2328 2669 
Q 3034 2534 3370 2195 
Q 3706 1856 3706 1288 
Q 3706 609 3251 259 
Q 2797 -91 1919 -91 
Q 1588 -91 1214 -16 
Q 841 59 441 206 
L 441 856 
Q 825 641 1194 531 
Q 1563 422 1919 422 
Q 2459 422 2753 634 
Q 3047 847 3047 1241 
Q 3047 1584 2836 1778 
Q 2625 1972 2144 2069 
L 1759 2144 
Q 1053 2284 737 2584 
Q 422 2884 422 3419 
Q 422 4038 858 4394 
Q 1294 4750 2059 4750 
Q 2388 4750 2728 4690 
Q 3069 4631 3425 4513 
z
" transform="scale(0.015625)"/>
     </defs>
     <use xlink:href="#DejaVuSans-53"/>
     <use xlink:href="#DejaVuSans-6f" x="63.476562"/>
     <use xlink:href="#DejaVuSans-69" x="124.658203"/>
     <use xlink:href="#DejaVuSans-6c" x="152.441406"/>
    </g>
   </g>
   <g id="legend_1">
    <g id="patch_5">
     <path d="M 896.175 294.659062 
L 1096.706719 294.659062 
Q 1100.006719 294.659062 1100.006719 291.359062 
L 1100.006719 50.82 
Q 1100.006719 47.52 1096.706719 47.52 
L 896.175 47.52 
Q 892.875 47.52 892.875 50.82 
L 892.875 291.359062 
Q 892.875 294.659062 896.175 294.659062 
z
" style="fill: #ffffff; opacity: 0.8; stroke: #cccccc; stroke-width: 1.5; stroke-linejoin: miter"/>
    </g>
    <g id="line2d_36">
     <path d="M 899.475 60.882422 
L 915.975 60.882422 
L 932.475 60.882422 
" style="fill: none; stroke: #98d7d9; stroke-width: 2.25; stroke-linecap: square"/>
    </g>
    <g id="text_22">
     <!-- Air -->
     <g transform="translate(945.675 66.657422)scale(0.165 -0.165)">
      <defs>
       <path id="DejaVuSans-41" d="M 2188 4044 
L 1331 1722 
L 3047 1722 
L 2188 4044 
z
M 1831 4666 
L 2547 4666 
L 4325 0 
L 3669 0 
L 3244 1197 
L 1141 1197 
L 716 0 
L 50 0 
L 1831 4666 
z
" transform="scale(0.015625)"/>
      </defs>
      <use xlink:href="#DejaVuSans-41"/>
      <use xlink:href="#DejaVuSans-69" x="68.408203"/>
      <use xlink:href="#DejaVuSans-72" x="96.191406"/>
     </g>
    </g>
    <g id="line2d_37">
     <path d="M 899.475 85.101328 
L 915.975 85.101328 
L 932.475 85.101328 
" style="fill: none; stroke: #fec008; stroke-width: 2.25; stroke-linecap: square"/>
    </g>
    <g id="text_23">
     <!-- Pig gut -->
     <g transform="translate(945.675 90.876328)scale(0.165 -0.165)">
      <use xlink:href="#DejaVuSans-50"/>
      <use xlink:href="#DejaVuSans-69" x="58.052734"/>
      <use xlink:href="#DejaVuSans-67" x="85.835938"/>
      <use xlink:href="#DejaVuSans-20" x="149.3125"/>
      <use xlink:href="#DejaVuSans-67" x="181.099609"/>
      <use xlink:href="#DejaVuSans-75" x="244.576172"/>
      <use xlink:href="#DejaVuSans-74" x="307.955078"/>
     </g>
    </g>
    <g id="line2d_38">
     <path d="M 899.475 109.320234 
L 915.975 109.320234 
L 932.475 109.320234 
" style="fill: none; stroke: #024a5c; stroke-width: 2.25; stroke-linecap: square"/>
    </g>
    <g id="text_24">
     <!-- Water associated -->
     <g transform="translate(945.675 115.095234)scale(0.165 -0.165)">
      <defs>
       <path id="DejaVuSans-57" d="M 213 4666 
L 850 4666 
L 1831 722 
L 2809 4666 
L 3519 4666 
L 4500 722 
L 5478 4666 
L 6119 4666 
L 4947 0 
L 4153 0 
L 3169 4050 
L 2175 0 
L 1381 0 
L 213 4666 
z
" transform="scale(0.015625)"/>
       <path id="DejaVuSans-63" d="M 3122 3366 
L 3122 2828 
Q 2878 2963 2633 3030 
Q 2388 3097 2138 3097 
Q 1578 3097 1268 2742 
Q 959 2388 959 1747 
Q 959 1106 1268 751 
Q 1578 397 2138 397 
Q 2388 397 2633 464 
Q 2878 531 3122 666 
L 3122 134 
Q 2881 22 2623 -34 
Q 2366 -91 2075 -91 
Q 1284 -91 818 406 
Q 353 903 353 1747 
Q 353 2603 823 3093 
Q 1294 3584 2113 3584 
Q 2378 3584 2631 3529 
Q 2884 3475 3122 3366 
z
" transform="scale(0.015625)"/>
       <path id="DejaVuSans-64" d="M 2906 2969 
L 2906 4863 
L 3481 4863 
L 3481 0 
L 2906 0 
L 2906 525 
Q 2725 213 2448 61 
Q 2172 -91 1784 -91 
Q 1150 -91 751 415 
Q 353 922 353 1747 
Q 353 2572 751 3078 
Q 1150 3584 1784 3584 
Q 2172 3584 2448 3432 
Q 2725 3281 2906 2969 
z
M 947 1747 
Q 947 1113 1208 752 
Q 1469 391 1925 391 
Q 2381 391 2643 752 
Q 2906 1113 2906 1747 
Q 2906 2381 2643 2742 
Q 2381 3103 1925 3103 
Q 1469 3103 1208 2742 
Q 947 2381 947 1747 
z
" transform="scale(0.015625)"/>
      </defs>
      <use xlink:href="#DejaVuSans-57"/>
      <use xlink:href="#DejaVuSans-61" x="92.501953"/>
      <use xlink:href="#DejaVuSans-74" x="153.78125"/>
      <use xlink:href="#DejaVuSans-65" x="192.990234"/>
      <use xlink:href="#DejaVuSans-72" x="254.513672"/>
      <use xlink:href="#DejaVuSans-20" x="295.626953"/>
      <use xlink:href="#DejaVuSans-61" x="327.414062"/>
      <use xlink:href="#DejaVuSans-73" x="388.693359"/>
      <use xlink:href="#DejaVuSans-73" x="440.792969"/>
      <use xlink:href="#DejaVuSans-6f" x="492.892578"/>
      <use xlink:href="#DejaVuSans-63" x="554.074219"/>
      <use xlink:href="#DejaVuSans-69" x="609.054688"/>
      <use xlink:href="#DejaVuSans-61" x="636.837891"/>
      <use xlink:href="#DejaVuSans-74" x="698.117188"/>
      <use xlink:href="#DejaVuSans-65" x="737.326172"/>
      <use xlink:href="#DejaVuSans-64" x="798.849609"/>
     </g>
    </g>
    <g id="line2d_39">
     <path d="M 899.475 133.539141 
L 915.975 133.539141 
L 932.475 133.539141 
" style="fill: none; stroke: #028f00; stroke-width: 2.25; stroke-linecap: square"/>
    </g>
    <g id="text_25">
     <!-- Soil -->
     <g transform="translate(945.675 139.314141)scale(0.165 -0.165)">
      <use xlink:href="#DejaVuSans-53"/>
      <use xlink:href="#DejaVuSans-6f" x="63.476562"/>
      <use xlink:href="#DejaVuSans-69" x="124.658203"/>
      <use xlink:href="#DejaVuSans-6c" x="152.441406"/>
     </g>
    </g>
    <g id="line2d_40">
     <path d="M 899.475 157.758047 
L 915.975 157.758047 
L 932.475 157.758047 
" style="fill: none; stroke: #78c48a; stroke-width: 2.25; stroke-linecap: square"/>
    </g>
    <g id="text_26">
     <!-- Plant associated -->
     <g transform="translate(945.675 163.533047)scale(0.165 -0.165)">
      <use xlink:href="#DejaVuSans-50"/>
      <use xlink:href="#DejaVuSans-6c" x="60.302734"/>
      <use xlink:href="#DejaVuSans-61" x="88.085938"/>
      <use xlink:href="#DejaVuSans-6e" x="149.365234"/>
      <use xlink:href="#DejaVuSans-74" x="212.744141"/>
      <use xlink:href="#DejaVuSans-20" x="251.953125"/>
      <use xlink:href="#DejaVuSans-61" x="283.740234"/>
      <use xlink:href="#DejaVuSans-73" x="345.019531"/>
      <use xlink:href="#DejaVuSans-73" x="397.119141"/>
      <use xlink:href="#DejaVuSans-6f" x="449.21875"/>
      <use xlink:href="#DejaVuSans-63" x="510.400391"/>
      <use xlink:href="#DejaVuSans-69" x="565.380859"/>
      <use xlink:href="#DejaVuSans-61" x="593.164062"/>
      <use xlink:href="#DejaVuSans-74" x="654.443359"/>
      <use xlink:href="#DejaVuSans-65" x="693.652344"/>
      <use xlink:href="#DejaVuSans-64" x="755.175781"/>
     </g>
    </g>
    <g id="line2d_41">
     <path d="M 899.475 181.976953 
L 915.975 181.976953 
L 932.475 181.976953 
" style="fill: none; stroke: #c797d0; stroke-width: 2.25; stroke-linecap: square"/>
    </g>
    <g id="text_27">
     <!-- Human skin -->
     <g transform="translate(945.675 187.751953)scale(0.165 -0.165)">
      <defs>
       <path id="DejaVuSans-48" d="M 628 4666 
L 1259 4666 
L 1259 2753 
L 3553 2753 
L 3553 4666 
L 4184 4666 
L 4184 0 
L 3553 0 
L 3553 2222 
L 1259 2222 
L 1259 0 
L 628 0 
L 628 4666 
z
" transform="scale(0.015625)"/>
       <path id="DejaVuSans-6b" d="M 581 4863 
L 1159 4863 
L 1159 1991 
L 2875 3500 
L 3609 3500 
L 1753 1863 
L 3688 0 
L 2938 0 
L 1159 1709 
L 1159 0 
L 581 0 
L 581 4863 
z
" transform="scale(0.015625)"/>
      </defs>
      <use xlink:href="#DejaVuSans-48"/>
      <use xlink:href="#DejaVuSans-75" x="75.195312"/>
      <use xlink:href="#DejaVuSans-6d" x="138.574219"/>
      <use xlink:href="#DejaVuSans-61" x="235.986328"/>
      <use xlink:href="#DejaVuSans-6e" x="297.265625"/>
      <use xlink:href="#DejaVuSans-20" x="360.644531"/>
      <use xlink:href="#DejaVuSans-73" x="392.431641"/>
      <use xlink:href="#DejaVuSans-6b" x="444.53125"/>
      <use xlink:href="#DejaVuSans-69" x="502.441406"/>
      <use xlink:href="#DejaVuSans-6e" x="530.224609"/>
     </g>
    </g>
    <g id="line2d_42">
     <path d="M 899.475 206.195859 
L 915.975 206.195859 
L 932.475 206.195859 
" style="fill: none; stroke: #000000; stroke-opacity: 0.901961; stroke-width: 2.25; stroke-linecap: square"/>
    </g>
    <g id="text_28">
     <!-- Built environment -->
     <g transform="translate(945.675 211.970859)scale(0.165 -0.165)">
      <use xlink:href="#DejaVuSans-42"/>
      <use xlink:href="#DejaVuSans-75" x="68.603516"/>
      <use xlink:href="#DejaVuSans-69" x="131.982422"/>
      <use xlink:href="#DejaVuSans-6c" x="159.765625"/>
      <use xlink:href="#DejaVuSans-74" x="187.548828"/>
      <use xlink:href="#DejaVuSans-20" x="226.757812"/>
      <use xlink:href="#DejaVuSans-65" x="258.544922"/>
      <use xlink:href="#DejaVuSans-6e" x="320.068359"/>
      <use xlink:href="#DejaVuSans-76" x="383.447266"/>
      <use xlink:href="#DejaVuSans-69" x="442.626953"/>
      <use xlink:href="#DejaVuSans-72" x="470.410156"/>
      <use xlink:href="#DejaVuSans-6f" x="509.273438"/>
      <use xlink:href="#DejaVuSans-6e" x="570.455078"/>
      <use xlink:href="#DejaVuSans-6d" x="633.833984"/>
      <use xlink:href="#DejaVuSans-65" x="731.246094"/>
      <use xlink:href="#DejaVuSans-6e" x="792.769531"/>
      <use xlink:href="#DejaVuSans-74" x="856.148438"/>
     </g>
    </g>
    <g id="line2d_43">
     <path d="M 899.475 230.414766 
L 915.975 230.414766 
L 932.475 230.414766 
" style="fill: none; stroke: #dd861d; stroke-width: 2.25; stroke-linecap: square"/>
    </g>
    <g id="text_29">
     <!-- Human gut -->
     <g transform="translate(945.675 236.189766)scale(0.165 -0.165)">
      <use xlink:href="#DejaVuSans-48"/>
      <use xlink:href="#DejaVuSans-75" x="75.195312"/>
      <use xlink:href="#DejaVuSans-6d" x="138.574219"/>
      <use xlink:href="#DejaVuSans-61" x="235.986328"/>
      <use xlink:href="#DejaVuSans-6e" x="297.265625"/>
      <use xlink:href="#DejaVuSans-20" x="360.644531"/>
      <use xlink:href="#DejaVuSans-67" x="392.431641"/>
      <use xlink:href="#DejaVuSans-75" x="455.908203"/>
      <use xlink:href="#DejaVuSans-74" x="519.287109"/>
     </g>
    </g>
    <g id="line2d_44">
     <path d="M 899.475 254.633672 
L 915.975 254.633672 
L 932.475 254.633672 
" style="fill: none; stroke: #bf5c97; stroke-width: 2.25; stroke-linecap: square"/>
    </g>
    <g id="text_30">
     <!-- Human mouth -->
     <g transform="translate(945.675 260.408672)scale(0.165 -0.165)">
      <defs>
       <path id="DejaVuSans-68" d="M 3513 2113 
L 3513 0 
L 2938 0 
L 2938 2094 
Q 2938 2591 2744 2837 
Q 2550 3084 2163 3084 
Q 1697 3084 1428 2787 
Q 1159 2491 1159 1978 
L 1159 0 
L 581 0 
L 581 4863 
L 1159 4863 
L 1159 2956 
Q 1366 3272 1645 3428 
Q 1925 3584 2291 3584 
Q 2894 3584 3203 3211 
Q 3513 2838 3513 2113 
z
" transform="scale(0.015625)"/>
      </defs>
      <use xlink:href="#DejaVuSans-48"/>
      <use xlink:href="#DejaVuSans-75" x="75.195312"/>
      <use xlink:href="#DejaVuSans-6d" x="138.574219"/>
      <use xlink:href="#DejaVuSans-61" x="235.986328"/>
      <use xlink:href="#DejaVuSans-6e" x="297.265625"/>
      <use xlink:href="#DejaVuSans-20" x="360.644531"/>
      <use xlink:href="#DejaVuSans-6d" x="392.431641"/>
      <use xlink:href="#DejaVuSans-6f" x="489.84375"/>
      <use xlink:href="#DejaVuSans-75" x="551.025391"/>
      <use xlink:href="#DejaVuSans-74" x="614.404297"/>
      <use xlink:href="#DejaVuSans-68" x="653.613281"/>
     </g>
    </g>
    <g id="line2d_45">
     <path d="M 899.475 278.852578 
L 915.975 278.852578 
L 932.475 278.852578 
" style="fill: none; stroke: #0522bb; stroke-width: 2.25; stroke-linecap: square"/>
    </g>
    <g id="text_31">
     <!-- Marine -->
     <g transform="translate(945.675 284.627578)scale(0.165 -0.165)">
      <use xlink:href="#DejaVuSans-4d"/>
      <use xlink:href="#DejaVuSans-61" x="86.279297"/>
      <use xlink:href="#DejaVuSans-72" x="147.558594"/>
      <use xlink:href="#DejaVuSans-69" x="188.671875"/>
      <use xlink:href="#DejaVuSans-6e" x="216.455078"/>
      <use xlink:href="#DejaVuSans-65" x="279.833984"/>
     </g>
    </g>
   </g>
  </g>
  <g id="axes_2">
   <g id="patch_6">
    <path d="M 501.015 266.4 
L 853.815 266.4 
L 853.815 7.2 
L 501.015 7.2 
z
" style="fill: #ffffff"/>
   </g>
   <g id="PolyCollection_11"/>
   <g id="matplotlib.axis_3">
    <g id="xtick_8">
     <g id="line2d_46">
      <g>
       <use xlink:href="#md00c4e6898" x="501.015" y="266.4" style="stroke: #000000; stroke-width: 1.875"/>
      </g>
     </g>
     <g id="text_32">
      <!-- 0 -->
      <g transform="translate(495.765938 291.437422)scale(0.165 -0.165)">
       <use xlink:href="#DejaVuSans-30"/>
      </g>
     </g>
    </g>
    <g id="xtick_9">
     <g id="line2d_47">
      <g>
       <use xlink:href="#md00c4e6898" x="601.815" y="266.4" style="stroke: #000000; stroke-width: 1.875"/>
      </g>
     </g>
     <g id="text_33">
      <!-- 10,000 -->
      <g transform="translate(572.947734 291.437422)scale(0.165 -0.165)">
       <use xlink:href="#DejaVuSans-31"/>
       <use xlink:href="#DejaVuSans-30" x="63.623047"/>
       <use xlink:href="#DejaVuSans-2c" x="127.246094"/>
       <use xlink:href="#DejaVuSans-30" x="159.033203"/>
       <use xlink:href="#DejaVuSans-30" x="222.65625"/>
       <use xlink:href="#DejaVuSans-30" x="286.279297"/>
      </g>
     </g>
    </g>
    <g id="xtick_10">
     <g id="line2d_48">
      <g>
       <use xlink:href="#md00c4e6898" x="702.615" y="266.4" style="stroke: #000000; stroke-width: 1.875"/>
      </g>
     </g>
     <g id="text_34">
      <!-- 20,000 -->
      <g transform="translate(673.747734 291.437422)scale(0.165 -0.165)">
       <use xlink:href="#DejaVuSans-32"/>
       <use xlink:href="#DejaVuSans-30" x="63.623047"/>
       <use xlink:href="#DejaVuSans-2c" x="127.246094"/>
       <use xlink:href="#DejaVuSans-30" x="159.033203"/>
       <use xlink:href="#DejaVuSans-30" x="222.65625"/>
       <use xlink:href="#DejaVuSans-30" x="286.279297"/>
      </g>
     </g>
    </g>
    <g id="xtick_11">
     <g id="line2d_49">
      <g>
       <use xlink:href="#md00c4e6898" x="803.415" y="266.4" style="stroke: #000000; stroke-width: 1.875"/>
      </g>
     </g>
     <g id="text_35">
      <!-- 30,000 -->
      <g transform="translate(774.547734 291.437422)scale(0.165 -0.165)">
       <use xlink:href="#DejaVuSans-33"/>
       <use xlink:href="#DejaVuSans-30" x="63.623047"/>
       <use xlink:href="#DejaVuSans-2c" x="127.246094"/>
       <use xlink:href="#DejaVuSans-30" x="159.033203"/>
       <use xlink:href="#DejaVuSans-30" x="222.65625"/>
       <use xlink:href="#DejaVuSans-30" x="286.279297"/>
      </g>
     </g>
    </g>
   </g>
   <g id="matplotlib.axis_4">
    <g id="ytick_9">
     <g id="line2d_50">
      <g>
       <use xlink:href="#mcb0650e814" x="501.015" y="254.676455" style="stroke: #000000; stroke-width: 1.875"/>
      </g>
     </g>
     <g id="text_36">
      <!-- 0 -->
      <g transform="translate(478.016875 260.945166)scale(0.165 -0.165)">
       <use xlink:href="#DejaVuSans-30"/>
      </g>
     </g>
    </g>
    <g id="ytick_10">
     <g id="line2d_51">
      <g>
       <use xlink:href="#mcb0650e814" x="501.015" y="213.117416" style="stroke: #000000; stroke-width: 1.875"/>
      </g>
     </g>
     <g id="text_37">
      <!-- 20 -->
      <g transform="translate(467.51875 219.386127)scale(0.165 -0.165)">
       <use xlink:href="#DejaVuSans-32"/>
       <use xlink:href="#DejaVuSans-30" x="63.623047"/>
      </g>
     </g>
    </g>
    <g id="ytick_11">
     <g id="line2d_52">
      <g>
       <use xlink:href="#mcb0650e814" x="501.015" y="171.558377" style="stroke: #000000; stroke-width: 1.875"/>
      </g>
     </g>
     <g id="text_38">
      <!-- 40 -->
      <g transform="translate(467.51875 177.827088)scale(0.165 -0.165)">
       <use xlink:href="#DejaVuSans-34"/>
       <use xlink:href="#DejaVuSans-30" x="63.623047"/>
      </g>
     </g>
    </g>
    <g id="ytick_12">
     <g id="line2d_53">
      <g>
       <use xlink:href="#mcb0650e814" x="501.015" y="129.999338" style="stroke: #000000; stroke-width: 1.875"/>
      </g>
     </g>
     <g id="text_39">
      <!-- 60 -->
      <g transform="translate(467.51875 136.268048)scale(0.165 -0.165)">
       <use xlink:href="#DejaVuSans-36"/>
       <use xlink:href="#DejaVuSans-30" x="63.623047"/>
      </g>
     </g>
    </g>
    <g id="ytick_13">
     <g id="line2d_54">
      <g>
       <use xlink:href="#mcb0650e814" x="501.015" y="88.440298" style="stroke: #000000; stroke-width: 1.875"/>
      </g>
     </g>
     <g id="text_40">
      <!-- 80 -->
      <g transform="translate(467.51875 94.709009)scale(0.165 -0.165)">
       <use xlink:href="#DejaVuSans-38"/>
       <use xlink:href="#DejaVuSans-30" x="63.623047"/>
      </g>
     </g>
    </g>
    <g id="ytick_14">
     <g id="line2d_55">
      <g>
       <use xlink:href="#mcb0650e814" x="501.015" y="46.881259" style="stroke: #000000; stroke-width: 1.875"/>
      </g>
     </g>
     <g id="text_41">
      <!-- 100 -->
      <g transform="translate(457.020625 53.14997)scale(0.165 -0.165)">
       <use xlink:href="#DejaVuSans-31"/>
       <use xlink:href="#DejaVuSans-30" x="63.623047"/>
       <use xlink:href="#DejaVuSans-30" x="127.246094"/>
      </g>
     </g>
    </g>
   </g>
   <g id="line2d_56">
    <path d="M 501.02508 254.618182 
L 501.88188 251.415581 
L 502.779 248.743454 
L 503.47452 246.86172 
L 504.00876 245.520644 
L 505.93404 241.120218 
L 508.5246 235.965935 
L 511.37724 230.964331 
L 513.8166 226.955288 
L 516.52812 222.804224 
L 517.47564 221.441483 
L 517.65708 221.163174 
L 519.32028 218.849432 
L 519.79404 218.213317 
L 520.42908 217.404795 
L 524.18892 212.375077 
L 524.86428 211.550517 
L 525.97308 210.166459 
L 530.22684 205.15395 
L 530.96268 204.289237 
L 532.62588 202.366612 
L 532.9182 202.016836 
L 533.45244 201.396292 
L 534.21852 200.527895 
L 535.4382 199.196493 
L 535.91196 198.671568 
L 538.28076 196.133947 
L 538.563 195.831098 
L 539.4702 194.876931 
L 544.64124 189.637262 
L 545.37708 188.899411 
L 552.59436 181.856254 
L 553.28988 181.209836 
L 556.69692 178.082941 
L 557.25132 177.574151 
L 557.72508 177.143308 
L 558.66252 176.321925 
L 561.27324 174.022691 
L 561.76716 173.565035 
L 564.015 171.607374 
L 564.65004 171.05842 
L 566.35356 169.638106 
L 566.69628 169.350777 
L 570.92988 165.792646 
L 571.34316 165.441002 
L 572.56284 164.430929 
L 573.06684 164.029264 
L 575.27436 162.218998 
L 576.5142 161.21805 
L 577.2702 160.635414 
L 579.77004 158.555689 
L 581.151 157.454387 
L 582.03804 156.724405 
L 582.915 156.051764 
L 584.06412 155.178104 
L 585.22332 154.315123 
L 585.54588 154.057221 
L 585.95916 153.749013 
L 586.8462 153.05791 
L 587.16876 152.815776 
L 587.8542 152.294402 
L 606.73404 138.492838 
L 618.1446 130.638865 
L 618.6486 130.296857 
L 619.67676 129.603249 
L 620.50332 129.042438 
L 621.13836 128.626589 
L 622.81164 127.490341 
L 625.48284 125.72472 
L 625.93644 125.424956 
L 634.89756 119.679297 
L 636.63132 118.578848 
L 637.38732 118.111001 
L 640.45164 116.218442 
L 647.55804 111.841549 
L 647.84028 111.653439 
L 661.75068 103.316322 
L 669.89532 98.559787 
L 670.89324 97.993055 
L 674.35068 96.048042 
L 674.72364 95.831177 
L 676.22556 94.962107 
L 677.57628 94.216357 
L 678.43308 93.735937 
L 679.01772 93.416819 
L 680.4894 92.597446 
L 680.67084 92.48601 
L 681.46716 92.030061 
L 682.0014 91.733708 
L 683.03964 91.14931 
L 683.54364 90.877967 
L 684.1686 90.528555 
L 689.34972 87.711837 
L 690.03516 87.338595 
L 690.81132 86.922124 
L 692.71644 85.906252 
L 693.15996 85.66818 
L 694.1982 85.116017 
L 700.02444 81.899756 
L 703.00812 80.343238 
L 703.4718 80.107411 
L 705.88092 78.825792 
L 706.42524 78.52366 
L 707.61468 77.911662 
L 708.55212 77.43167 
L 709.37868 76.998917 
L 709.94316 76.690763 
L 711.12252 76.08326 
L 714.90252 74.073555 
L 715.467 73.767199 
L 716.3238 73.296149 
L 716.88828 73.006472 
L 724.59948 69.072558 
L 727.98636 67.342419 
L 729.24636 66.720662 
L 730.06284 66.304482 
L 730.87932 65.91799 
L 731.68572 65.514631 
L 739.63884 61.5964 
L 740.163 61.345565 
L 741.6246 60.624163 
L 742.39068 60.236709 
L 745.01148 58.961541 
L 745.6566 58.620953 
L 747.41052 57.757381 
L 749.5878 56.677074 
L 750.4446 56.249099 
L 751.73484 55.617749 
L 752.39004 55.31111 
L 753.57948 54.739965 
L 769.63692 47.023006 
L 770.88684 46.430813 
L 775.42284 44.360502 
L 776.87436 43.707413 
L 778.3662 43.00417 
L 779.20284 42.624239 
L 780.99708 41.804534 
L 782.23692 41.249026 
L 782.73084 41.023311 
L 784.73676 40.098714 
L 785.3718 39.810529 
L 789.8574 37.779145 
L 790.27068 37.595233 
L 791.68188 36.937861 
L 804.10044 31.368022 
L 806.02572 30.531674 
L 807.57804 29.837928 
L 808.81788 29.310985 
L 809.48316 29.01626 
L 811.49916 28.149512 
L 814.08972 27.032079 
L 815.26908 26.521066 
L 823.94796 22.815478 
L 825.50028 22.14928 
L 826.05468 21.899032 
L 826.70988 21.620873 
L 828.27228 20.952984 
L 829.33068 20.521875 
L 830.70156 19.930993 
L 831.5382 19.578345 
L 832.23372 19.277391 
L 832.91916 18.981818 
L 832.91916 18.981818 
" clip-path="url(#p0821b5cdfc)" style="fill: none; stroke: #dd861d; stroke-width: 2.25; stroke-linecap: square"/>
   </g>
   <g id="line2d_57"/>
   <g id="patch_7">
    <path d="M 501.015 266.4 
L 501.015 7.2 
" style="fill: none; stroke: #000000; stroke-width: 1.875; stroke-linejoin: miter; stroke-linecap: square"/>
   </g>
   <g id="patch_8">
    <path d="M 501.015 266.4 
L 853.815 266.4 
" style="fill: none; stroke: #000000; stroke-width: 1.875; stroke-linejoin: miter; stroke-linecap: square"/>
   </g>
   <g id="text_42">
    <!-- Human gut -->
    <g transform="translate(521.175 46.881259)scale(0.18 -0.18)">
     <use xlink:href="#DejaVuSans-48"/>
     <use xlink:href="#DejaVuSans-75" x="75.195312"/>
     <use xlink:href="#DejaVuSans-6d" x="138.574219"/>
     <use xlink:href="#DejaVuSans-61" x="235.986328"/>
     <use xlink:href="#DejaVuSans-6e" x="297.265625"/>
     <use xlink:href="#DejaVuSans-20" x="360.644531"/>
     <use xlink:href="#DejaVuSans-67" x="392.431641"/>
     <use xlink:href="#DejaVuSans-75" x="455.908203"/>
     <use xlink:href="#DejaVuSans-74" x="519.287109"/>
    </g>
   </g>
   <g id="text_43">
    <!-- All smORFs -->
    <g transform="translate(682.455 26.10174)scale(0.18 -0.18)">
     <use xlink:href="#DejaVuSans-41"/>
     <use xlink:href="#DejaVuSans-6c" x="68.408203"/>
     <use xlink:href="#DejaVuSans-6c" x="96.191406"/>
     <use xlink:href="#DejaVuSans-20" x="123.974609"/>
     <use xlink:href="#DejaVuSans-73" x="155.761719"/>
     <use xlink:href="#DejaVuSans-6d" x="207.861328"/>
     <use xlink:href="#DejaVuSans-4f" x="305.273438"/>
     <use xlink:href="#DejaVuSans-52" x="383.984375"/>
     <use xlink:href="#DejaVuSans-46" x="453.466797"/>
     <use xlink:href="#DejaVuSans-73" x="510.986328"/>
    </g>
   </g>
   <g id="legend_2"/>
  </g>
 </g>
 <defs>
  <clipPath id="pe0110cfd78">
   <rect x="72.615" y="47.52" width="781.2" height="443.52"/>
  </clipPath>
  <clipPath id="p0821b5cdfc">
   <rect x="501.015" y="7.2" width="352.8" height="259.2"/>
  </clipPath>
 </defs>
</svg>
