<?xml version="1.0" encoding="utf-8" standalone="no"?>
<!DOCTYPE svg PUBLIC "-//W3C//DTD SVG 1.1//EN"
  "http://www.w3.org/Graphics/SVG/1.1/DTD/svg11.dtd">
<svg xmlns:xlink="http://www.w3.org/1999/xlink" width="1079.963672pt" height="548.129531pt" viewBox="0 0 1079.963672 548.129531" xmlns="http://www.w3.org/2000/svg" version="1.1">
 <metadata>
  <rdf:RDF xmlns:dc="http://purl.org/dc/elements/1.1/" xmlns:cc="http://creativecommons.org/ns#" xmlns:rdf="http://www.w3.org/1999/02/22-rdf-syntax-ns#">
   <cc:Work>
    <dc:type rdf:resource="http://purl.org/dc/dcmitype/StillImage"/>
    <dc:date>2022-09-09T02:01:49.088094</dc:date>
    <dc:format>image/svg+xml</dc:format>
    <dc:creator>
     <cc:Agent>
      <dc:title>Matplotlib v3.5.3, https://matplotlib.org/</dc:title>
     </cc:Agent>
    </dc:creator>
   </cc:Work>
  </rdf:RDF>
 </metadata>
 <defs>
  <style type="text/css">*{stroke-linejoin: round; stroke-linecap: butt}</style>
 </defs>
 <g id="figure_1">
  <g id="patch_1">
   <path d="M 0 548.129531 
L 1079.963672 548.129531 
L 1079.963672 0 
L 0 0 
z
" style="fill: #ffffff"/>
  </g>
  <g id="axes_1">
   <g id="patch_2">
    <path d="M 72.615 491.04 
L 853.815 491.04 
L 853.815 47.52 
L 72.615 47.52 
z
" style="fill: #ffffff"/>
   </g>
   <g id="PolyCollection_1"/>
   <g id="PolyCollection_2"/>
   <g id="PolyCollection_3"/>
   <g id="PolyCollection_4"/>
   <g id="PolyCollection_5"/>
   <g id="PolyCollection_6"/>
   <g id="PolyCollection_7"/>
   <g id="PolyCollection_8"/>
   <g id="matplotlib.axis_1">
    <g id="xtick_1">
     <g id="line2d_1">
      <defs>
       <path id="m88c9070d3b" d="M 0 0 
L 0 9 
" style="stroke: #000000; stroke-width: 1.875"/>
      </defs>
      <g>
       <use xlink:href="#m88c9070d3b" x="72.615" y="491.04" style="stroke: #000000; stroke-width: 1.875"/>
      </g>
     </g>
     <g id="text_1">
      <!-- 0 -->
      <g transform="translate(67.365938 516.077422)scale(0.165 -0.165)">
       <defs>
        <path id="DejaVuSans-30" d="M 2034 4250 
Q 1547 4250 1301 3770 
Q 1056 3291 1056 2328 
Q 1056 1369 1301 889 
Q 1547 409 2034 409 
Q 2525 409 2770 889 
Q 3016 1369 3016 2328 
Q 3016 3291 2770 3770 
Q 2525 4250 2034 4250 
z
M 2034 4750 
Q 2819 4750 3233 4129 
Q 3647 3509 3647 2328 
Q 3647 1150 3233 529 
Q 2819 -91 2034 -91 
Q 1250 -91 836 529 
Q 422 1150 422 2328 
Q 422 3509 836 4129 
Q 1250 4750 2034 4750 
z
" transform="scale(0.015625)"/>
       </defs>
       <use xlink:href="#DejaVuSans-30"/>
      </g>
     </g>
    </g>
    <g id="xtick_2">
     <g id="line2d_2">
      <g>
       <use xlink:href="#m88c9070d3b" x="159.415" y="491.04" style="stroke: #000000; stroke-width: 1.875"/>
      </g>
     </g>
     <g id="text_2">
      <!-- 2,000 -->
      <g transform="translate(135.796797 516.077422)scale(0.165 -0.165)">
       <defs>
        <path id="DejaVuSans-32" d="M 1228 531 
L 3431 531 
L 3431 0 
L 469 0 
L 469 531 
Q 828 903 1448 1529 
Q 2069 2156 2228 2338 
Q 2531 2678 2651 2914 
Q 2772 3150 2772 3378 
Q 2772 3750 2511 3984 
Q 2250 4219 1831 4219 
Q 1534 4219 1204 4116 
Q 875 4013 500 3803 
L 500 4441 
Q 881 4594 1212 4672 
Q 1544 4750 1819 4750 
Q 2544 4750 2975 4387 
Q 3406 4025 3406 3419 
Q 3406 3131 3298 2873 
Q 3191 2616 2906 2266 
Q 2828 2175 2409 1742 
Q 1991 1309 1228 531 
z
" transform="scale(0.015625)"/>
        <path id="DejaVuSans-2c" d="M 750 794 
L 1409 794 
L 1409 256 
L 897 -744 
L 494 -744 
L 750 256 
L 750 794 
z
" transform="scale(0.015625)"/>
       </defs>
       <use xlink:href="#DejaVuSans-32"/>
       <use xlink:href="#DejaVuSans-2c" x="63.623047"/>
       <use xlink:href="#DejaVuSans-30" x="95.410156"/>
       <use xlink:href="#DejaVuSans-30" x="159.033203"/>
       <use xlink:href="#DejaVuSans-30" x="222.65625"/>
      </g>
     </g>
    </g>
    <g id="xtick_3">
     <g id="line2d_3">
      <g>
       <use xlink:href="#m88c9070d3b" x="246.215" y="491.04" style="stroke: #000000; stroke-width: 1.875"/>
      </g>
     </g>
     <g id="text_3">
      <!-- 4,000 -->
      <g transform="translate(222.596797 516.077422)scale(0.165 -0.165)">
       <defs>
        <path id="DejaVuSans-34" d="M 2419 4116 
L 825 1625 
L 2419 1625 
L 2419 4116 
z
M 2253 4666 
L 3047 4666 
L 3047 1625 
L 3713 1625 
L 3713 1100 
L 3047 1100 
L 3047 0 
L 2419 0 
L 2419 1100 
L 313 1100 
L 313 1709 
L 2253 4666 
z
" transform="scale(0.015625)"/>
       </defs>
       <use xlink:href="#DejaVuSans-34"/>
       <use xlink:href="#DejaVuSans-2c" x="63.623047"/>
       <use xlink:href="#DejaVuSans-30" x="95.410156"/>
       <use xlink:href="#DejaVuSans-30" x="159.033203"/>
       <use xlink:href="#DejaVuSans-30" x="222.65625"/>
      </g>
     </g>
    </g>
    <g id="xtick_4">
     <g id="line2d_4">
      <g>
       <use xlink:href="#m88c9070d3b" x="333.015" y="491.04" style="stroke: #000000; stroke-width: 1.875"/>
      </g>
     </g>
     <g id="text_4">
      <!-- 6,000 -->
      <g transform="translate(309.396797 516.077422)scale(0.165 -0.165)">
       <defs>
        <path id="DejaVuSans-36" d="M 2113 2584 
Q 1688 2584 1439 2293 
Q 1191 2003 1191 1497 
Q 1191 994 1439 701 
Q 1688 409 2113 409 
Q 2538 409 2786 701 
Q 3034 994 3034 1497 
Q 3034 2003 2786 2293 
Q 2538 2584 2113 2584 
z
M 3366 4563 
L 3366 3988 
Q 3128 4100 2886 4159 
Q 2644 4219 2406 4219 
Q 1781 4219 1451 3797 
Q 1122 3375 1075 2522 
Q 1259 2794 1537 2939 
Q 1816 3084 2150 3084 
Q 2853 3084 3261 2657 
Q 3669 2231 3669 1497 
Q 3669 778 3244 343 
Q 2819 -91 2113 -91 
Q 1303 -91 875 529 
Q 447 1150 447 2328 
Q 447 3434 972 4092 
Q 1497 4750 2381 4750 
Q 2619 4750 2861 4703 
Q 3103 4656 3366 4563 
z
" transform="scale(0.015625)"/>
       </defs>
       <use xlink:href="#DejaVuSans-36"/>
       <use xlink:href="#DejaVuSans-2c" x="63.623047"/>
       <use xlink:href="#DejaVuSans-30" x="95.410156"/>
       <use xlink:href="#DejaVuSans-30" x="159.033203"/>
       <use xlink:href="#DejaVuSans-30" x="222.65625"/>
      </g>
     </g>
    </g>
    <g id="xtick_5">
     <g id="line2d_5">
      <g>
       <use xlink:href="#m88c9070d3b" x="419.815" y="491.04" style="stroke: #000000; stroke-width: 1.875"/>
      </g>
     </g>
     <g id="text_5">
      <!-- 8,000 -->
      <g transform="translate(396.196797 516.077422)scale(0.165 -0.165)">
       <defs>
        <path id="DejaVuSans-38" d="M 2034 2216 
Q 1584 2216 1326 1975 
Q 1069 1734 1069 1313 
Q 1069 891 1326 650 
Q 1584 409 2034 409 
Q 2484 409 2743 651 
Q 3003 894 3003 1313 
Q 3003 1734 2745 1975 
Q 2488 2216 2034 2216 
z
M 1403 2484 
Q 997 2584 770 2862 
Q 544 3141 544 3541 
Q 544 4100 942 4425 
Q 1341 4750 2034 4750 
Q 2731 4750 3128 4425 
Q 3525 4100 3525 3541 
Q 3525 3141 3298 2862 
Q 3072 2584 2669 2484 
Q 3125 2378 3379 2068 
Q 3634 1759 3634 1313 
Q 3634 634 3220 271 
Q 2806 -91 2034 -91 
Q 1263 -91 848 271 
Q 434 634 434 1313 
Q 434 1759 690 2068 
Q 947 2378 1403 2484 
z
M 1172 3481 
Q 1172 3119 1398 2916 
Q 1625 2713 2034 2713 
Q 2441 2713 2670 2916 
Q 2900 3119 2900 3481 
Q 2900 3844 2670 4047 
Q 2441 4250 2034 4250 
Q 1625 4250 1398 4047 
Q 1172 3844 1172 3481 
z
" transform="scale(0.015625)"/>
       </defs>
       <use xlink:href="#DejaVuSans-38"/>
       <use xlink:href="#DejaVuSans-2c" x="63.623047"/>
       <use xlink:href="#DejaVuSans-30" x="95.410156"/>
       <use xlink:href="#DejaVuSans-30" x="159.033203"/>
       <use xlink:href="#DejaVuSans-30" x="222.65625"/>
      </g>
     </g>
    </g>
    <g id="xtick_6">
     <g id="line2d_6">
      <g>
       <use xlink:href="#m88c9070d3b" x="506.615" y="491.04" style="stroke: #000000; stroke-width: 1.875"/>
      </g>
     </g>
     <g id="text_6">
      <!-- 10,000 -->
      <g transform="translate(477.747734 516.077422)scale(0.165 -0.165)">
       <defs>
        <path id="DejaVuSans-31" d="M 794 531 
L 1825 531 
L 1825 4091 
L 703 3866 
L 703 4441 
L 1819 4666 
L 2450 4666 
L 2450 531 
L 3481 531 
L 3481 0 
L 794 0 
L 794 531 
z
" transform="scale(0.015625)"/>
       </defs>
       <use xlink:href="#DejaVuSans-31"/>
       <use xlink:href="#DejaVuSans-30" x="63.623047"/>
       <use xlink:href="#DejaVuSans-2c" x="127.246094"/>
       <use xlink:href="#DejaVuSans-30" x="159.033203"/>
       <use xlink:href="#DejaVuSans-30" x="222.65625"/>
       <use xlink:href="#DejaVuSans-30" x="286.279297"/>
      </g>
     </g>
    </g>
    <g id="xtick_7">
     <g id="line2d_7">
      <g>
       <use xlink:href="#m88c9070d3b" x="593.415" y="491.04" style="stroke: #000000; stroke-width: 1.875"/>
      </g>
     </g>
     <g id="text_7">
      <!-- 12,000 -->
      <g transform="translate(564.547734 516.077422)scale(0.165 -0.165)">
       <use xlink:href="#DejaVuSans-31"/>
       <use xlink:href="#DejaVuSans-32" x="63.623047"/>
       <use xlink:href="#DejaVuSans-2c" x="127.246094"/>
       <use xlink:href="#DejaVuSans-30" x="159.033203"/>
       <use xlink:href="#DejaVuSans-30" x="222.65625"/>
       <use xlink:href="#DejaVuSans-30" x="286.279297"/>
      </g>
     </g>
    </g>
    <g id="xtick_8">
     <g id="line2d_8">
      <g>
       <use xlink:href="#m88c9070d3b" x="680.215" y="491.04" style="stroke: #000000; stroke-width: 1.875"/>
      </g>
     </g>
     <g id="text_8">
      <!-- 14,000 -->
      <g transform="translate(651.347734 516.077422)scale(0.165 -0.165)">
       <use xlink:href="#DejaVuSans-31"/>
       <use xlink:href="#DejaVuSans-34" x="63.623047"/>
       <use xlink:href="#DejaVuSans-2c" x="127.246094"/>
       <use xlink:href="#DejaVuSans-30" x="159.033203"/>
       <use xlink:href="#DejaVuSans-30" x="222.65625"/>
       <use xlink:href="#DejaVuSans-30" x="286.279297"/>
      </g>
     </g>
    </g>
    <g id="xtick_9">
     <g id="line2d_9">
      <g>
       <use xlink:href="#m88c9070d3b" x="767.015" y="491.04" style="stroke: #000000; stroke-width: 1.875"/>
      </g>
     </g>
     <g id="text_9">
      <!-- 16,000 -->
      <g transform="translate(738.147734 516.077422)scale(0.165 -0.165)">
       <use xlink:href="#DejaVuSans-31"/>
       <use xlink:href="#DejaVuSans-36" x="63.623047"/>
       <use xlink:href="#DejaVuSans-2c" x="127.246094"/>
       <use xlink:href="#DejaVuSans-30" x="159.033203"/>
       <use xlink:href="#DejaVuSans-30" x="222.65625"/>
       <use xlink:href="#DejaVuSans-30" x="286.279297"/>
      </g>
     </g>
    </g>
    <g id="xtick_10">
     <g id="line2d_10">
      <g>
       <use xlink:href="#m88c9070d3b" x="853.815" y="491.04" style="stroke: #000000; stroke-width: 1.875"/>
      </g>
     </g>
     <g id="text_10">
      <!-- 18,000 -->
      <g transform="translate(824.947734 516.077422)scale(0.165 -0.165)">
       <use xlink:href="#DejaVuSans-31"/>
       <use xlink:href="#DejaVuSans-38" x="63.623047"/>
       <use xlink:href="#DejaVuSans-2c" x="127.246094"/>
       <use xlink:href="#DejaVuSans-30" x="159.033203"/>
       <use xlink:href="#DejaVuSans-30" x="222.65625"/>
       <use xlink:href="#DejaVuSans-30" x="286.279297"/>
      </g>
     </g>
    </g>
    <g id="text_11">
     <!-- Number of samples -->
     <g transform="translate(375.254063 537.186094)scale(0.18 -0.18)">
      <defs>
       <path id="DejaVuSans-4e" d="M 628 4666 
L 1478 4666 
L 3547 763 
L 3547 4666 
L 4159 4666 
L 4159 0 
L 3309 0 
L 1241 3903 
L 1241 0 
L 628 0 
L 628 4666 
z
" transform="scale(0.015625)"/>
       <path id="DejaVuSans-75" d="M 544 1381 
L 544 3500 
L 1119 3500 
L 1119 1403 
Q 1119 906 1312 657 
Q 1506 409 1894 409 
Q 2359 409 2629 706 
Q 2900 1003 2900 1516 
L 2900 3500 
L 3475 3500 
L 3475 0 
L 2900 0 
L 2900 538 
Q 2691 219 2414 64 
Q 2138 -91 1772 -91 
Q 1169 -91 856 284 
Q 544 659 544 1381 
z
M 1991 3584 
L 1991 3584 
z
" transform="scale(0.015625)"/>
       <path id="DejaVuSans-6d" d="M 3328 2828 
Q 3544 3216 3844 3400 
Q 4144 3584 4550 3584 
Q 5097 3584 5394 3201 
Q 5691 2819 5691 2113 
L 5691 0 
L 5113 0 
L 5113 2094 
Q 5113 2597 4934 2840 
Q 4756 3084 4391 3084 
Q 3944 3084 3684 2787 
Q 3425 2491 3425 1978 
L 3425 0 
L 2847 0 
L 2847 2094 
Q 2847 2600 2669 2842 
Q 2491 3084 2119 3084 
Q 1678 3084 1418 2786 
Q 1159 2488 1159 1978 
L 1159 0 
L 581 0 
L 581 3500 
L 1159 3500 
L 1159 2956 
Q 1356 3278 1631 3431 
Q 1906 3584 2284 3584 
Q 2666 3584 2933 3390 
Q 3200 3197 3328 2828 
z
" transform="scale(0.015625)"/>
       <path id="DejaVuSans-62" d="M 3116 1747 
Q 3116 2381 2855 2742 
Q 2594 3103 2138 3103 
Q 1681 3103 1420 2742 
Q 1159 2381 1159 1747 
Q 1159 1113 1420 752 
Q 1681 391 2138 391 
Q 2594 391 2855 752 
Q 3116 1113 3116 1747 
z
M 1159 2969 
Q 1341 3281 1617 3432 
Q 1894 3584 2278 3584 
Q 2916 3584 3314 3078 
Q 3713 2572 3713 1747 
Q 3713 922 3314 415 
Q 2916 -91 2278 -91 
Q 1894 -91 1617 61 
Q 1341 213 1159 525 
L 1159 0 
L 581 0 
L 581 4863 
L 1159 4863 
L 1159 2969 
z
" transform="scale(0.015625)"/>
       <path id="DejaVuSans-65" d="M 3597 1894 
L 3597 1613 
L 953 1613 
Q 991 1019 1311 708 
Q 1631 397 2203 397 
Q 2534 397 2845 478 
Q 3156 559 3463 722 
L 3463 178 
Q 3153 47 2828 -22 
Q 2503 -91 2169 -91 
Q 1331 -91 842 396 
Q 353 884 353 1716 
Q 353 2575 817 3079 
Q 1281 3584 2069 3584 
Q 2775 3584 3186 3129 
Q 3597 2675 3597 1894 
z
M 3022 2063 
Q 3016 2534 2758 2815 
Q 2500 3097 2075 3097 
Q 1594 3097 1305 2825 
Q 1016 2553 972 2059 
L 3022 2063 
z
" transform="scale(0.015625)"/>
       <path id="DejaVuSans-72" d="M 2631 2963 
Q 2534 3019 2420 3045 
Q 2306 3072 2169 3072 
Q 1681 3072 1420 2755 
Q 1159 2438 1159 1844 
L 1159 0 
L 581 0 
L 581 3500 
L 1159 3500 
L 1159 2956 
Q 1341 3275 1631 3429 
Q 1922 3584 2338 3584 
Q 2397 3584 2469 3576 
Q 2541 3569 2628 3553 
L 2631 2963 
z
" transform="scale(0.015625)"/>
       <path id="DejaVuSans-20" transform="scale(0.015625)"/>
       <path id="DejaVuSans-6f" d="M 1959 3097 
Q 1497 3097 1228 2736 
Q 959 2375 959 1747 
Q 959 1119 1226 758 
Q 1494 397 1959 397 
Q 2419 397 2687 759 
Q 2956 1122 2956 1747 
Q 2956 2369 2687 2733 
Q 2419 3097 1959 3097 
z
M 1959 3584 
Q 2709 3584 3137 3096 
Q 3566 2609 3566 1747 
Q 3566 888 3137 398 
Q 2709 -91 1959 -91 
Q 1206 -91 779 398 
Q 353 888 353 1747 
Q 353 2609 779 3096 
Q 1206 3584 1959 3584 
z
" transform="scale(0.015625)"/>
       <path id="DejaVuSans-66" d="M 2375 4863 
L 2375 4384 
L 1825 4384 
Q 1516 4384 1395 4259 
Q 1275 4134 1275 3809 
L 1275 3500 
L 2222 3500 
L 2222 3053 
L 1275 3053 
L 1275 0 
L 697 0 
L 697 3053 
L 147 3053 
L 147 3500 
L 697 3500 
L 697 3744 
Q 697 4328 969 4595 
Q 1241 4863 1831 4863 
L 2375 4863 
z
" transform="scale(0.015625)"/>
       <path id="DejaVuSans-73" d="M 2834 3397 
L 2834 2853 
Q 2591 2978 2328 3040 
Q 2066 3103 1784 3103 
Q 1356 3103 1142 2972 
Q 928 2841 928 2578 
Q 928 2378 1081 2264 
Q 1234 2150 1697 2047 
L 1894 2003 
Q 2506 1872 2764 1633 
Q 3022 1394 3022 966 
Q 3022 478 2636 193 
Q 2250 -91 1575 -91 
Q 1294 -91 989 -36 
Q 684 19 347 128 
L 347 722 
Q 666 556 975 473 
Q 1284 391 1588 391 
Q 1994 391 2212 530 
Q 2431 669 2431 922 
Q 2431 1156 2273 1281 
Q 2116 1406 1581 1522 
L 1381 1569 
Q 847 1681 609 1914 
Q 372 2147 372 2553 
Q 372 3047 722 3315 
Q 1072 3584 1716 3584 
Q 2034 3584 2315 3537 
Q 2597 3491 2834 3397 
z
" transform="scale(0.015625)"/>
       <path id="DejaVuSans-61" d="M 2194 1759 
Q 1497 1759 1228 1600 
Q 959 1441 959 1056 
Q 959 750 1161 570 
Q 1363 391 1709 391 
Q 2188 391 2477 730 
Q 2766 1069 2766 1631 
L 2766 1759 
L 2194 1759 
z
M 3341 1997 
L 3341 0 
L 2766 0 
L 2766 531 
Q 2569 213 2275 61 
Q 1981 -91 1556 -91 
Q 1019 -91 701 211 
Q 384 513 384 1019 
Q 384 1609 779 1909 
Q 1175 2209 1959 2209 
L 2766 2209 
L 2766 2266 
Q 2766 2663 2505 2880 
Q 2244 3097 1772 3097 
Q 1472 3097 1187 3025 
Q 903 2953 641 2809 
L 641 3341 
Q 956 3463 1253 3523 
Q 1550 3584 1831 3584 
Q 2591 3584 2966 3190 
Q 3341 2797 3341 1997 
z
" transform="scale(0.015625)"/>
       <path id="DejaVuSans-70" d="M 1159 525 
L 1159 -1331 
L 581 -1331 
L 581 3500 
L 1159 3500 
L 1159 2969 
Q 1341 3281 1617 3432 
Q 1894 3584 2278 3584 
Q 2916 3584 3314 3078 
Q 3713 2572 3713 1747 
Q 3713 922 3314 415 
Q 2916 -91 2278 -91 
Q 1894 -91 1617 61 
Q 1341 213 1159 525 
z
M 3116 1747 
Q 3116 2381 2855 2742 
Q 2594 3103 2138 3103 
Q 1681 3103 1420 2742 
Q 1159 2381 1159 1747 
Q 1159 1113 1420 752 
Q 1681 391 2138 391 
Q 2594 391 2855 752 
Q 3116 1113 3116 1747 
z
" transform="scale(0.015625)"/>
       <path id="DejaVuSans-6c" d="M 603 4863 
L 1178 4863 
L 1178 0 
L 603 0 
L 603 4863 
z
" transform="scale(0.015625)"/>
      </defs>
      <use xlink:href="#DejaVuSans-4e"/>
      <use xlink:href="#DejaVuSans-75" x="74.804688"/>
      <use xlink:href="#DejaVuSans-6d" x="138.183594"/>
      <use xlink:href="#DejaVuSans-62" x="235.595703"/>
      <use xlink:href="#DejaVuSans-65" x="299.072266"/>
      <use xlink:href="#DejaVuSans-72" x="360.595703"/>
      <use xlink:href="#DejaVuSans-20" x="401.708984"/>
      <use xlink:href="#DejaVuSans-6f" x="433.496094"/>
      <use xlink:href="#DejaVuSans-66" x="494.677734"/>
      <use xlink:href="#DejaVuSans-20" x="529.882812"/>
      <use xlink:href="#DejaVuSans-73" x="561.669922"/>
      <use xlink:href="#DejaVuSans-61" x="613.769531"/>
      <use xlink:href="#DejaVuSans-6d" x="675.048828"/>
      <use xlink:href="#DejaVuSans-70" x="772.460938"/>
      <use xlink:href="#DejaVuSans-6c" x="835.9375"/>
      <use xlink:href="#DejaVuSans-65" x="863.720703"/>
      <use xlink:href="#DejaVuSans-73" x="925.244141"/>
     </g>
    </g>
   </g>
   <g id="matplotlib.axis_2">
    <g id="ytick_1">
     <g id="line2d_11">
      <defs>
       <path id="m4fb7845765" d="M 0 0 
L -9 0 
" style="stroke: #000000; stroke-width: 1.875"/>
      </defs>
      <g>
       <use xlink:href="#m4fb7845765" x="72.615" y="491.04" style="stroke: #000000; stroke-width: 1.875"/>
      </g>
     </g>
     <g id="text_12">
      <!-- 0 -->
      <g transform="translate(49.616875 497.308711)scale(0.165 -0.165)">
       <use xlink:href="#DejaVuSans-30"/>
      </g>
     </g>
    </g>
    <g id="ytick_2">
     <g id="line2d_12">
      <g>
       <use xlink:href="#m4fb7845765" x="72.615" y="441.76" style="stroke: #000000; stroke-width: 1.875"/>
      </g>
     </g>
     <g id="text_13">
      <!-- 50 -->
      <g transform="translate(39.11875 448.028711)scale(0.165 -0.165)">
       <defs>
        <path id="DejaVuSans-35" d="M 691 4666 
L 3169 4666 
L 3169 4134 
L 1269 4134 
L 1269 2991 
Q 1406 3038 1543 3061 
Q 1681 3084 1819 3084 
Q 2600 3084 3056 2656 
Q 3513 2228 3513 1497 
Q 3513 744 3044 326 
Q 2575 -91 1722 -91 
Q 1428 -91 1123 -41 
Q 819 9 494 109 
L 494 744 
Q 775 591 1075 516 
Q 1375 441 1709 441 
Q 2250 441 2565 725 
Q 2881 1009 2881 1497 
Q 2881 1984 2565 2268 
Q 2250 2553 1709 2553 
Q 1456 2553 1204 2497 
Q 953 2441 691 2322 
L 691 4666 
z
" transform="scale(0.015625)"/>
       </defs>
       <use xlink:href="#DejaVuSans-35"/>
       <use xlink:href="#DejaVuSans-30" x="63.623047"/>
      </g>
     </g>
    </g>
    <g id="ytick_3">
     <g id="line2d_13">
      <g>
       <use xlink:href="#m4fb7845765" x="72.615" y="392.48" style="stroke: #000000; stroke-width: 1.875"/>
      </g>
     </g>
     <g id="text_14">
      <!-- 100 -->
      <g transform="translate(28.620625 398.748711)scale(0.165 -0.165)">
       <use xlink:href="#DejaVuSans-31"/>
       <use xlink:href="#DejaVuSans-30" x="63.623047"/>
       <use xlink:href="#DejaVuSans-30" x="127.246094"/>
      </g>
     </g>
    </g>
    <g id="ytick_4">
     <g id="line2d_14">
      <g>
       <use xlink:href="#m4fb7845765" x="72.615" y="343.2" style="stroke: #000000; stroke-width: 1.875"/>
      </g>
     </g>
     <g id="text_15">
      <!-- 150 -->
      <g transform="translate(28.620625 349.468711)scale(0.165 -0.165)">
       <use xlink:href="#DejaVuSans-31"/>
       <use xlink:href="#DejaVuSans-35" x="63.623047"/>
       <use xlink:href="#DejaVuSans-30" x="127.246094"/>
      </g>
     </g>
    </g>
    <g id="ytick_5">
     <g id="line2d_15">
      <g>
       <use xlink:href="#m4fb7845765" x="72.615" y="293.92" style="stroke: #000000; stroke-width: 1.875"/>
      </g>
     </g>
     <g id="text_16">
      <!-- 200 -->
      <g transform="translate(28.620625 300.188711)scale(0.165 -0.165)">
       <use xlink:href="#DejaVuSans-32"/>
       <use xlink:href="#DejaVuSans-30" x="63.623047"/>
       <use xlink:href="#DejaVuSans-30" x="127.246094"/>
      </g>
     </g>
    </g>
    <g id="ytick_6">
     <g id="line2d_16">
      <g>
       <use xlink:href="#m4fb7845765" x="72.615" y="244.64" style="stroke: #000000; stroke-width: 1.875"/>
      </g>
     </g>
     <g id="text_17">
      <!-- 250 -->
      <g transform="translate(28.620625 250.908711)scale(0.165 -0.165)">
       <use xlink:href="#DejaVuSans-32"/>
       <use xlink:href="#DejaVuSans-35" x="63.623047"/>
       <use xlink:href="#DejaVuSans-30" x="127.246094"/>
      </g>
     </g>
    </g>
    <g id="ytick_7">
     <g id="line2d_17">
      <g>
       <use xlink:href="#m4fb7845765" x="72.615" y="195.36" style="stroke: #000000; stroke-width: 1.875"/>
      </g>
     </g>
     <g id="text_18">
      <!-- 300 -->
      <g transform="translate(28.620625 201.628711)scale(0.165 -0.165)">
       <defs>
        <path id="DejaVuSans-33" d="M 2597 2516 
Q 3050 2419 3304 2112 
Q 3559 1806 3559 1356 
Q 3559 666 3084 287 
Q 2609 -91 1734 -91 
Q 1441 -91 1130 -33 
Q 819 25 488 141 
L 488 750 
Q 750 597 1062 519 
Q 1375 441 1716 441 
Q 2309 441 2620 675 
Q 2931 909 2931 1356 
Q 2931 1769 2642 2001 
Q 2353 2234 1838 2234 
L 1294 2234 
L 1294 2753 
L 1863 2753 
Q 2328 2753 2575 2939 
Q 2822 3125 2822 3475 
Q 2822 3834 2567 4026 
Q 2313 4219 1838 4219 
Q 1578 4219 1281 4162 
Q 984 4106 628 3988 
L 628 4550 
Q 988 4650 1302 4700 
Q 1616 4750 1894 4750 
Q 2613 4750 3031 4423 
Q 3450 4097 3450 3541 
Q 3450 3153 3228 2886 
Q 3006 2619 2597 2516 
z
" transform="scale(0.015625)"/>
       </defs>
       <use xlink:href="#DejaVuSans-33"/>
       <use xlink:href="#DejaVuSans-30" x="63.623047"/>
       <use xlink:href="#DejaVuSans-30" x="127.246094"/>
      </g>
     </g>
    </g>
    <g id="ytick_8">
     <g id="line2d_18">
      <g>
       <use xlink:href="#m4fb7845765" x="72.615" y="146.08" style="stroke: #000000; stroke-width: 1.875"/>
      </g>
     </g>
     <g id="text_19">
      <!-- 350 -->
      <g transform="translate(28.620625 152.348711)scale(0.165 -0.165)">
       <use xlink:href="#DejaVuSans-33"/>
       <use xlink:href="#DejaVuSans-35" x="63.623047"/>
       <use xlink:href="#DejaVuSans-30" x="127.246094"/>
      </g>
     </g>
    </g>
    <g id="ytick_9">
     <g id="line2d_19">
      <g>
       <use xlink:href="#m4fb7845765" x="72.615" y="96.8" style="stroke: #000000; stroke-width: 1.875"/>
      </g>
     </g>
     <g id="text_20">
      <!-- 400 -->
      <g transform="translate(28.620625 103.068711)scale(0.165 -0.165)">
       <use xlink:href="#DejaVuSans-34"/>
       <use xlink:href="#DejaVuSans-30" x="63.623047"/>
       <use xlink:href="#DejaVuSans-30" x="127.246094"/>
      </g>
     </g>
    </g>
    <g id="ytick_10">
     <g id="line2d_20">
      <g>
       <use xlink:href="#m4fb7845765" x="72.615" y="47.52" style="stroke: #000000; stroke-width: 1.875"/>
      </g>
     </g>
     <g id="text_21">
      <!-- 450 -->
      <g transform="translate(28.620625 53.788711)scale(0.165 -0.165)">
       <use xlink:href="#DejaVuSans-34"/>
       <use xlink:href="#DejaVuSans-35" x="63.623047"/>
       <use xlink:href="#DejaVuSans-30" x="127.246094"/>
      </g>
     </g>
    </g>
    <g id="text_22">
     <!-- Number of smORFs (millions) -->
     <g transform="translate(20.877188 401.038594)rotate(-90)scale(0.18 -0.18)">
      <defs>
       <path id="DejaVuSans-4f" d="M 2522 4238 
Q 1834 4238 1429 3725 
Q 1025 3213 1025 2328 
Q 1025 1447 1429 934 
Q 1834 422 2522 422 
Q 3209 422 3611 934 
Q 4013 1447 4013 2328 
Q 4013 3213 3611 3725 
Q 3209 4238 2522 4238 
z
M 2522 4750 
Q 3503 4750 4090 4092 
Q 4678 3434 4678 2328 
Q 4678 1225 4090 567 
Q 3503 -91 2522 -91 
Q 1538 -91 948 565 
Q 359 1222 359 2328 
Q 359 3434 948 4092 
Q 1538 4750 2522 4750 
z
" transform="scale(0.015625)"/>
       <path id="DejaVuSans-52" d="M 2841 2188 
Q 3044 2119 3236 1894 
Q 3428 1669 3622 1275 
L 4263 0 
L 3584 0 
L 2988 1197 
Q 2756 1666 2539 1819 
Q 2322 1972 1947 1972 
L 1259 1972 
L 1259 0 
L 628 0 
L 628 4666 
L 2053 4666 
Q 2853 4666 3247 4331 
Q 3641 3997 3641 3322 
Q 3641 2881 3436 2590 
Q 3231 2300 2841 2188 
z
M 1259 4147 
L 1259 2491 
L 2053 2491 
Q 2509 2491 2742 2702 
Q 2975 2913 2975 3322 
Q 2975 3731 2742 3939 
Q 2509 4147 2053 4147 
L 1259 4147 
z
" transform="scale(0.015625)"/>
       <path id="DejaVuSans-46" d="M 628 4666 
L 3309 4666 
L 3309 4134 
L 1259 4134 
L 1259 2759 
L 3109 2759 
L 3109 2228 
L 1259 2228 
L 1259 0 
L 628 0 
L 628 4666 
z
" transform="scale(0.015625)"/>
       <path id="DejaVuSans-28" d="M 1984 4856 
Q 1566 4138 1362 3434 
Q 1159 2731 1159 2009 
Q 1159 1288 1364 580 
Q 1569 -128 1984 -844 
L 1484 -844 
Q 1016 -109 783 600 
Q 550 1309 550 2009 
Q 550 2706 781 3412 
Q 1013 4119 1484 4856 
L 1984 4856 
z
" transform="scale(0.015625)"/>
       <path id="DejaVuSans-69" d="M 603 3500 
L 1178 3500 
L 1178 0 
L 603 0 
L 603 3500 
z
M 603 4863 
L 1178 4863 
L 1178 4134 
L 603 4134 
L 603 4863 
z
" transform="scale(0.015625)"/>
       <path id="DejaVuSans-6e" d="M 3513 2113 
L 3513 0 
L 2938 0 
L 2938 2094 
Q 2938 2591 2744 2837 
Q 2550 3084 2163 3084 
Q 1697 3084 1428 2787 
Q 1159 2491 1159 1978 
L 1159 0 
L 581 0 
L 581 3500 
L 1159 3500 
L 1159 2956 
Q 1366 3272 1645 3428 
Q 1925 3584 2291 3584 
Q 2894 3584 3203 3211 
Q 3513 2838 3513 2113 
z
" transform="scale(0.015625)"/>
       <path id="DejaVuSans-29" d="M 513 4856 
L 1013 4856 
Q 1481 4119 1714 3412 
Q 1947 2706 1947 2009 
Q 1947 1309 1714 600 
Q 1481 -109 1013 -844 
L 513 -844 
Q 928 -128 1133 580 
Q 1338 1288 1338 2009 
Q 1338 2731 1133 3434 
Q 928 4138 513 4856 
z
" transform="scale(0.015625)"/>
      </defs>
      <use xlink:href="#DejaVuSans-4e"/>
      <use xlink:href="#DejaVuSans-75" x="74.804688"/>
      <use xlink:href="#DejaVuSans-6d" x="138.183594"/>
      <use xlink:href="#DejaVuSans-62" x="235.595703"/>
      <use xlink:href="#DejaVuSans-65" x="299.072266"/>
      <use xlink:href="#DejaVuSans-72" x="360.595703"/>
      <use xlink:href="#DejaVuSans-20" x="401.708984"/>
      <use xlink:href="#DejaVuSans-6f" x="433.496094"/>
      <use xlink:href="#DejaVuSans-66" x="494.677734"/>
      <use xlink:href="#DejaVuSans-20" x="529.882812"/>
      <use xlink:href="#DejaVuSans-73" x="561.669922"/>
      <use xlink:href="#DejaVuSans-6d" x="613.769531"/>
      <use xlink:href="#DejaVuSans-4f" x="711.181641"/>
      <use xlink:href="#DejaVuSans-52" x="789.892578"/>
      <use xlink:href="#DejaVuSans-46" x="859.375"/>
      <use xlink:href="#DejaVuSans-73" x="916.894531"/>
      <use xlink:href="#DejaVuSans-20" x="968.994141"/>
      <use xlink:href="#DejaVuSans-28" x="1000.78125"/>
      <use xlink:href="#DejaVuSans-6d" x="1039.794922"/>
      <use xlink:href="#DejaVuSans-69" x="1137.207031"/>
      <use xlink:href="#DejaVuSans-6c" x="1164.990234"/>
      <use xlink:href="#DejaVuSans-6c" x="1192.773438"/>
      <use xlink:href="#DejaVuSans-69" x="1220.556641"/>
      <use xlink:href="#DejaVuSans-6f" x="1248.339844"/>
      <use xlink:href="#DejaVuSans-6e" x="1309.521484"/>
      <use xlink:href="#DejaVuSans-73" x="1372.900391"/>
      <use xlink:href="#DejaVuSans-29" x="1425"/>
     </g>
    </g>
   </g>
   <g id="line2d_21">
    <path d="M 72.6584 490.979736 
L 73.917 489.073704 
L 74.6548 488.048925 
L 75.002 487.609265 
L 77.4758 484.532575 
L 77.7796 484.142 
L 78.257 483.529334 
L 78.7778 482.865041 
L 81.5554 479.693531 
L 81.7724 479.487869 
L 81.9894 479.216905 
L 82.4234 478.789289 
L 83.9858 477.094242 
L 84.4632 476.559943 
L 84.8104 476.190862 
L 88.9768 472.195029 
L 89.324 471.89124 
L 90.7562 470.535685 
L 98.6116 463.535628 
L 99.3494 463.021748 
L 99.6966 462.714755 
L 100.0004 462.475317 
L 100.825 461.849614 
L 101.1288 461.570567 
L 101.693 461.095974 
L 102.4308 460.391132 
L 103.0818 459.951959 
L 103.2988 459.750836 
L 103.646 459.536795 
L 104.297 459.010897 
L 105.1216 458.400919 
L 105.5556 458.144662 
L 105.7726 457.918572 
L 106.467 457.496714 
L 108.2464 456.129974 
L 108.6804 455.85526 
L 109.3314 455.402168 
L 110.2428 454.742623 
L 110.5466 454.559451 
L 111.1108 454.11926 
L 111.9354 453.479958 
L 112.4128 453.110071 
L 113.194 452.502778 
L 115.1904 451.336343 
L 115.6244 450.987337 
L 116.1886 450.614055 
L 117.7076 449.668688 
L 118.185 449.369106 
L 122.2646 446.852558 
L 123.0892 446.283031 
L 123.7402 445.786624 
L 124.6082 445.350896 
L 126.5612 444.223846 
L 126.9518 443.963544 
L 127.3858 443.738167 
L 128.384 443.175219 
L 129.1652 442.707469 
L 131.0748 441.540006 
L 131.422 441.336944 
L 132.1164 440.945004 
L 133.9392 439.852923 
L 134.243 439.657169 
L 135.6318 438.844447 
L 136.9772 438.111735 
L 137.6282 437.777711 
L 138.4962 437.238192 
L 139.017 436.953657 
L 139.668 436.607394 
L 140.0586 436.40049 
L 140.6228 436.117912 
L 142.272 435.277309 
L 144.225 434.264063 
L 144.7024 434.041134 
L 148.2612 432.159577 
L 148.782 431.93538 
L 149.4764 431.591147 
L 150.8652 430.879204 
L 153.6428 429.499214 
L 155.0316 428.913523 
L 155.6826 428.628418 
L 161.9322 425.905427 
L 163.7984 425.125196 
L 164.1456 424.943822 
L 164.9268 424.582756 
L 166.6194 423.992994 
L 168.6158 423.156642 
L 169.18 422.93186 
L 170.0046 422.602745 
L 170.5254 422.391243 
L 176.9052 419.759822 
L 176.9052 419.759822 
" clip-path="url(#p65f764bf8a)" style="fill: none; stroke: #878a8a; stroke-width: 2.25; stroke-linecap: square"/>
   </g>
   <g id="line2d_22">
    <path d="M 72.6584 491.029106 
L 74.0906 490.720041 
L 77.3456 490.084986 
L 79.0816 489.781109 
L 81.4686 489.379399 
L 83.5084 489.063048 
L 88.4126 488.325574 
L 91.1468 487.922618 
L 99.3928 486.813467 
L 101.6062 486.529656 
L 112.1524 485.331832 
L 115.9716 484.896027 
L 134.6336 482.951147 
L 137.9754 482.616641 
L 153.8164 481.166372 
L 158.1564 480.814161 
L 198.9958 477.534316 
L 203.5528 477.202269 
L 210.4968 476.692377 
L 225.8604 475.652286 
L 238.8804 474.79461 
L 243.3072 474.507035 
L 248.4718 474.183765 
L 267.1338 473.055976 
L 267.1338 473.055976 
" clip-path="url(#p65f764bf8a)" style="fill: none; stroke: #792597; stroke-width: 2.25; stroke-linecap: square"/>
   </g>
   <g id="line2d_23">
    <path d="M 72.6584 490.969748 
L 73.3962 489.524902 
L 73.7868 488.79217 
L 74.0906 488.297595 
L 74.6114 487.376204 
L 76.2172 484.382178 
L 76.4342 483.996691 
L 77.2154 482.642567 
L 77.5192 482.184384 
L 81.5554 475.479347 
L 81.9894 474.781922 
L 83.031 473.031744 
L 83.3782 472.539447 
L 84.333 471.08065 
L 84.7236 470.458632 
L 85.201 469.74054 
L 85.7218 468.883159 
L 87.6314 465.828044 
L 88.022 465.270313 
L 89.541 463.074835 
L 89.975 462.453198 
L 92.3186 459.089097 
L 93.013 458.081619 
L 93.4904 457.313958 
L 96.268 453.522579 
L 96.4416 453.294455 
L 97.57 451.739883 
L 97.9172 451.330142 
L 99.0456 449.780044 
L 100.174 448.193694 
L 100.825 447.191042 
L 101.3024 446.421943 
L 101.7798 445.844401 
L 107.1614 438.872016 
L 107.6822 438.141975 
L 108.3332 437.323729 
L 110.156 435.119625 
L 114.7998 429.422166 
L 115.147 428.996897 
L 116.5792 427.311891 
L 116.9264 426.774933 
L 117.8812 425.622508 
L 118.402 424.996898 
L 118.9662 424.323183 
L 120.2248 422.775465 
L 129.5558 412.099665 
L 129.7728 411.893242 
L 130.988 410.518766 
L 131.856 409.566198 
L 132.4636 408.905131 
L 133.2882 408.017291 
L 133.9392 407.324743 
L 135.762 405.40147 
L 136.3262 404.775513 
L 137.064 403.995267 
L 137.6282 403.386386 
L 141.5342 399.326792 
L 143.4872 397.305443 
L 143.9212 396.830659 
L 145.093 395.473239 
L 148.8688 391.775651 
L 149.5198 391.14456 
L 149.9538 390.736635 
L 150.735 389.921583 
L 153.6862 387.100772 
L 154.5976 386.295632 
L 154.9882 385.909656 
L 155.8128 385.168757 
L 157.5922 383.416203 
L 158.2432 382.794582 
L 158.8942 382.151396 
L 160.934 380.09989 
L 161.5416 379.571937 
L 162.1058 379.0432 
L 166.1854 375.065956 
L 166.576 374.722171 
L 167.2704 374.083649 
L 167.8346 373.543631 
L 169.18 372.358382 
L 169.614 371.885322 
L 170.1782 371.353639 
L 171.133 370.499952 
L 171.7406 369.928334 
L 172.1746 369.560537 
L 172.8256 368.916545 
L 188.8836 354.735946 
L 195.9578 348.843512 
L 196.3484 348.474721 
L 198.3448 346.821607 
L 198.5618 346.652491 
L 198.9958 346.288378 
L 200.7318 344.877489 
L 201.079 344.597127 
L 202.2074 343.730782 
L 203.8132 342.436857 
L 205.419 341.193752 
L 213.882 334.386709 
L 228.8984 323.286551 
L 229.506 322.870298 
L 239.5748 315.744495 
L 240.2692 315.286552 
L 242.3524 313.856934 
L 245.998 311.373675 
L 246.6056 310.944116 
L 247.1698 310.575789 
L 249.0794 309.255482 
L 249.47 308.937828 
L 250.5116 308.198797 
L 250.8154 307.991585 
L 253.81 305.858066 
L 254.3742 305.468029 
L 263.8788 299.375524 
L 264.5732 298.893865 
L 271.5172 294.511587 
L 271.9946 294.177573 
L 273.3834 293.268581 
L 274.1212 292.777949 
L 279.633 289.386064 
L 280.1538 289.034132 
L 280.7614 288.679649 
L 286.1864 285.309059 
L 287.0544 284.784934 
L 287.9658 284.225217 
L 288.3564 283.955211 
L 289.0942 283.533332 
L 289.7018 283.155415 
L 290.6566 282.580363 
L 293.304 280.965985 
L 294.8664 280.017092 
L 295.6476 279.569877 
L 295.9948 279.359443 
L 296.6024 279.026399 
L 297.861 278.291512 
L 298.8158 277.739787 
L 299.7272 277.207108 
L 300.2046 276.92006 
L 301.333 276.285199 
L 303.1124 275.204028 
L 303.6766 274.875534 
L 305.8032 273.651653 
L 306.7146 273.122416 
L 313.268 269.380432 
L 314.0058 268.967151 
L 316.8702 267.307763 
L 317.9986 266.65844 
L 319.6478 265.683276 
L 320.212 265.339108 
L 328.5014 260.820919 
L 328.9354 260.580959 
L 331.6262 259.108462 
L 332.4074 258.704664 
L 332.7546 258.499129 
L 333.449 258.121367 
L 334.1868 257.698569 
L 336.3568 256.603596 
L 356.017 246.56385 
L 356.017 246.56385 
" clip-path="url(#p65f764bf8a)" style="fill: none; stroke: #0522bb; stroke-width: 2.25; stroke-linecap: square"/>
   </g>
   <g id="line2d_24">
    <path d="M 72.6584 491.013519 
L 73.5264 490.571154 
L 75.002 489.700365 
L 79.6024 487.294566 
L 80.1666 486.982257 
L 81.0346 486.584799 
L 81.4252 486.387698 
L 83.2046 485.621303 
L 83.5518 485.412374 
L 86.0256 484.175914 
L 86.3728 483.976211 
L 87.5446 483.4852 
L 87.9786 483.310973 
L 89.5844 482.650435 
L 90.1486 482.447085 
L 90.5392 482.175591 
L 91.277 481.87039 
L 95.7906 479.998219 
L 96.051 479.863154 
L 96.702 479.616841 
L 99.6532 478.294007 
L 100.2174 478.037375 
L 102.5176 477.094177 
L 102.8214 476.949564 
L 105.5122 475.906938 
L 106.25 475.67372 
L 107.9426 475.055789 
L 108.3766 474.845864 
L 111.1542 473.743501 
L 112.0222 473.427506 
L 114.7998 472.406798 
L 115.6678 472.114228 
L 117.0566 471.595101 
L 118.3586 471.127348 
L 145.093 462.394385 
L 147.0026 461.84165 
L 147.3498 461.727286 
L 156.4638 459.216939 
L 156.7242 459.12925 
L 158.4168 458.561116 
L 159.198 458.372006 
L 159.5886 458.275107 
L 160.283 458.082186 
L 161.0642 457.837399 
L 161.6284 457.654368 
L 179.596 452.764943 
L 181.1584 452.394986 
L 185.5418 451.336536 
L 198.5184 448.157694 
L 199.2562 447.998839 
L 199.9506 447.825793 
L 201.2092 447.501887 
L 202.0772 447.294519 
L 205.0718 446.603994 
L 205.9832 446.401128 
L 207.8494 445.946608 
L 209.1514 445.649918 
L 211.495 445.100784 
L 211.8422 444.994136 
L 212.9272 444.792524 
L 214.1424 444.514994 
L 216.8332 443.924931 
L 218.005 443.661161 
L 219.4372 443.381238 
L 222.562 442.691272 
L 222.9092 442.620961 
L 225.3396 442.102843 
L 226.1642 441.91972 
L 226.5982 441.809513 
L 230.2004 441.065119 
L 230.9816 440.910753 
L 232.8478 440.48383 
L 233.846 440.310687 
L 238.7068 439.337011 
L 240.6164 438.985287 
L 241.5712 438.828964 
L 244.0884 438.306061 
L 245.6074 438.016206 
L 252.0306 436.718421 
L 252.508 436.599316 
L 257.6726 435.633483 
L 258.1066 435.548357 
L 259.3218 435.330827 
L 265.1374 434.223263 
L 266.6998 433.944767 
L 269.5208 433.410032 
L 270.6058 433.20499 
L 271.2134 433.086399 
L 274.0778 432.60292 
L 275.6836 432.323185 
L 276.6818 432.136489 
L 277.5498 431.990109 
L 278.6348 431.803876 
L 279.416 431.653019 
L 281.0652 431.347485 
L 299.9008 428.123261 
L 301.4198 427.882415 
L 303.8068 427.506988 
L 307.4524 426.961231 
L 309.7526 426.560353 
L 311.749 426.246147 
L 312.6604 426.097252 
L 318.7798 425.098562 
L 321.1234 424.751182 
L 321.6442 424.649626 
L 323.2934 424.422256 
L 333.7094 422.860746 
L 334.9246 422.675579 
L 342.3026 421.609339 
L 343.9518 421.413675 
L 349.0296 420.732212 
L 350.592 420.537687 
L 351.9808 420.335857 
L 353.0224 420.184583 
L 355.0188 419.902596 
L 355.0188 419.902596 
" clip-path="url(#p65f764bf8a)" style="fill: none; stroke: #11a837; stroke-width: 2.25; stroke-linecap: square"/>
   </g>
   <g id="line2d_25">
    <path d="M 72.6584 490.980443 
L 72.9622 490.356686 
L 74.8718 486.828563 
L 75.6964 485.601393 
L 76.521 484.435097 
L 77.1286 483.47663 
L 77.7362 482.572653 
L 79.7326 479.681247 
L 80.6874 478.219022 
L 81.295 477.434292 
L 84.0726 473.976951 
L 86.6332 471.036396 
L 88.3692 468.943902 
L 88.673 468.614174 
L 89.2806 467.96453 
L 90.1052 466.964368 
L 91.0166 465.925302 
L 91.6676 465.283453 
L 92.145 464.68825 
L 93.1866 463.627933 
L 94.9226 461.820484 
L 95.834 460.894142 
L 97.0058 459.858084 
L 100.1306 456.706218 
L 103.9498 453.226283 
L 104.8612 452.404914 
L 105.7726 451.647526 
L 106.5538 450.956568 
L 107.118 450.509319 
L 107.4652 450.215845 
L 108.2898 449.453993 
L 108.9842 448.888387 
L 109.6786 448.34477 
L 125.2592 436.223077 
L 127.1688 434.799061 
L 130.2936 432.451581 
L 130.9012 432.048176 
L 133.6788 430.123777 
L 134.894 429.292901 
L 135.2412 429.033624 
L 136.1526 428.422047 
L 139.017 426.514851 
L 139.5812 426.133902 
L 150.9086 418.658588 
L 151.386 418.356964 
L 152.3842 417.718697 
L 153.122 417.259738 
L 155.0316 416.046957 
L 159.0244 413.442786 
L 165.8816 409.50099 
L 167.3572 408.613853 
L 168.3988 408.0397 
L 169.7442 407.288982 
L 170.7424 406.678369 
L 171.2198 406.447128 
L 172.0878 405.955162 
L 172.652 405.645837 
L 173.1728 405.33906 
L 175.2126 404.139989 
L 175.6032 403.903757 
L 175.9938 403.699665 
L 177.6864 402.739646 
L 182.417 400.158729 
L 183.285 399.684757 
L 183.7624 399.413378 
L 184.1096 399.229806 
L 190.0554 396.105712 
L 191.4008 395.427569 
L 192.1386 395.019671 
L 193.3972 394.361769 
L 193.7444 394.19067 
L 199.6468 391.24942 
L 200.3412 390.886338 
L 201.4696 390.295807 
L 202.9452 389.600895 
L 205.5058 388.344458 
L 207.1116 387.582616 
L 207.5022 387.375651 
L 208.3268 386.974223 
L 209.325 386.452248 
L 222.2582 380.134938 
L 223.43 379.572853 
L 224.5584 379.055187 
L 225.2962 378.69993 
L 226.2944 378.239103 
L 226.7718 378.005489 
L 226.7718 378.005489 
" clip-path="url(#p65f764bf8a)" style="fill: none; stroke: #966906; stroke-opacity: 0.992157; stroke-width: 2.25; stroke-linecap: square"/>
   </g>
   <g id="line2d_26">
    <path d="M 72.6584 491.01236 
L 75.3492 489.859161 
L 78.9514 488.601394 
L 80.0364 488.278789 
L 82.6838 487.496005 
L 85.7652 486.627129 
L 89.0636 485.756802 
L 91.711 485.094034 
L 96.702 483.969717 
L 112.4128 480.670762 
L 132.4636 477.064684 
L 135.1544 476.605308 
L 136.0658 476.45327 
L 146.0044 474.87017 
L 148.2178 474.528267 
L 149.5198 474.338168 
L 167.0534 471.714016 
L 185.1512 469.267232 
L 198.6052 467.523182 
L 200.1676 467.319955 
L 207.7192 466.361659 
L 210.1062 466.042458 
L 213.231 465.657296 
L 231.9364 463.400194 
L 233.9762 463.1632 
L 241.1806 462.327201 
L 248.9926 461.448463 
L 273.3834 458.750285 
L 284.8844 457.537989 
L 298.8592 456.066759 
L 315.1342 454.432272 
L 321.9914 453.765269 
L 337.7456 452.229062 
L 340.3496 451.980533 
L 346.5992 451.378864 
L 359.0984 450.229335 
L 370.99 449.12089 
L 469.4646 440.564768 
L 499.7144 438.135367 
L 502.7958 437.893754 
L 512.257 437.149735 
L 521.371 436.438516 
L 546.0656 434.514595 
L 551.4906 434.103426 
L 567.6354 432.90155 
L 573.2774 432.478988 
L 584.5614 431.637969 
L 683.036 424.690224 
L 689.2856 424.264298 
L 696.3598 423.773698 
L 701.0036 423.462859 
L 717.105 422.388199 
L 747.702 420.363465 
L 752.042 420.074641 
L 756.6858 419.768664 
L 765.9734 419.163611 
L 774.2194 418.618229 
L 804.5994 416.689789 
L 817.0118 415.91812 
L 822.784 415.559699 
L 827.0372 415.282279 
L 853.8584 413.626909 
L 853.8584 413.626909 
" clip-path="url(#p65f764bf8a)" style="fill: none; stroke: #dd861d; stroke-width: 2.25; stroke-linecap: square"/>
   </g>
   <g id="line2d_27">
    <path d="M 72.6584 491.022277 
L 73.917 490.631491 
L 74.785 490.309401 
L 79.125 489.097417 
L 79.4288 489.008376 
L 80.0364 488.829815 
L 80.6874 488.636237 
L 83.4216 488.000701 
L 86.6766 487.284245 
L 87.371 487.124511 
L 88.1088 486.949865 
L 89.8014 486.623276 
L 91.928 486.211882 
L 92.9696 486.012795 
L 93.9244 485.813461 
L 95.183 485.572162 
L 100.0438 484.724634 
L 102.561 484.302909 
L 105.5122 483.802715 
L 107.335 483.530556 
L 109.505 483.229145 
L 110.156 483.150784 
L 112.9336 482.768736 
L 115.0168 482.481716 
L 116.3188 482.317336 
L 116.7094 482.246935 
L 119.5304 481.856357 
L 121.874 481.570212 
L 122.6552 481.476753 
L 125.129 481.162292 
L 130.0332 480.621914 
L 131.7258 480.432426 
L 131.7258 480.432426 
" clip-path="url(#p65f764bf8a)" style="fill: none; stroke: #000000; stroke-width: 2.25; stroke-linecap: square"/>
   </g>
   <g id="line2d_28">
    <path d="M 72.6584 490.921683 
L 72.7886 490.683348 
L 73.1358 489.473191 
L 73.5264 488.519664 
L 73.7868 487.557821 
L 74.0038 487.074147 
L 74.8718 484.811346 
L 76.521 480.553578 
L 77.8664 477.009653 
L 78.3438 475.467039 
L 78.6476 474.626388 
L 84.2462 460.547775 
L 84.7236 459.377266 
L 85.3746 457.828448 
L 85.6784 457.041722 
L 85.852 456.593695 
L 86.1558 455.823957 
L 86.4596 455.122743 
L 87.1106 453.460293 
L 87.3276 453.054801 
L 87.7616 452.092045 
L 88.8466 449.716778 
L 89.0202 449.444214 
L 89.6278 448.119415 
L 89.8448 447.590539 
L 90.0618 447.182697 
L 93.1866 440.029524 
L 93.2734 439.810467 
L 93.7942 438.495743 
L 94.9226 436.091748 
L 95.3132 435.139699 
L 95.5302 434.589873 
L 95.834 433.974601 
L 96.0944 433.370243 
L 96.268 433.001884 
L 96.5718 432.373314 
L 97.0926 431.269544 
L 98.221 428.581049 
L 98.7852 427.459415 
L 99.3928 426.095097 
L 104.9914 414.532431 
L 105.2518 414.19005 
L 105.5122 413.691025 
L 105.6858 413.412876 
L 106.1632 412.38026 
L 106.9444 410.778853 
L 107.4218 409.897381 
L 107.552 409.737887 
L 108.0728 408.667867 
L 109.3314 406.263863 
L 115.8848 393.474739 
L 116.232 392.694121 
L 116.7962 391.39948 
L 117.4906 389.927743 
L 118.1416 388.799146 
L 118.4888 388.098236 
L 118.619 387.893695 
L 119.0964 386.96258 
L 119.3568 386.501914 
L 125.5196 375.041779 
L 126.0838 374.020133 
L 126.9952 372.22134 
L 127.9066 370.644455 
L 128.2538 369.925485 
L 129.035 368.281899 
L 129.686 367.027139 
L 138.1056 352.229345 
L 139.4076 350.203073 
L 139.885 349.189505 
L 141.1436 346.997497 
L 141.4908 346.458605 
L 142.0116 345.644749 
L 142.1852 345.282083 
L 142.489 344.756373 
L 145.0062 340.457101 
L 145.5704 339.235767 
L 146.3516 338.007698 
L 147.5234 336.009516 
L 148.348 334.605797 
L 149.3028 333.087532 
L 149.65 332.494924 
L 150.2576 331.482064 
L 150.8218 330.65663 
L 151.2558 329.957717 
L 151.6464 329.242649 
L 152.3408 328.213413 
L 155.8996 322.150274 
L 156.1166 321.926133 
L 157.462 319.667208 
L 157.7658 319.234562 
L 161.7586 312.892484 
L 162.0624 312.403299 
L 162.5832 311.526719 
L 164.189 309.050915 
L 165.057 307.566341 
L 168.095 302.585749 
L 168.3988 302.097071 
L 168.9196 301.385284 
L 169.3102 300.87352 
L 169.9612 299.976567 
L 171.784 296.850581 
L 171.9142 296.714823 
L 174.3446 293.108996 
L 174.6918 292.571263 
L 174.8654 292.365197 
L 175.3428 291.70114 
L 175.8636 290.88104 
L 176.124 290.496571 
L 176.2976 290.189592 
L 177.209 288.790199 
L 177.6864 288.0619 
L 178.1204 287.445378 
L 178.4242 286.955961 
L 178.7714 286.453838 
L 183.1982 280.140007 
L 185.1946 277.042539 
L 185.5418 276.588856 
L 186.6268 274.843746 
L 186.8872 274.457092 
L 187.1476 274.133102 
L 187.408 273.755502 
L 197.9108 259.533261 
L 198.0844 259.301816 
L 200.7752 255.7262 
L 200.9922 255.468747 
L 202.7282 253.015782 
L 203.7698 251.796185 
L 204.1604 251.269851 
L 204.4208 250.908268 
L 204.768 250.464396 
L 205.1152 249.949896 
L 206.6776 247.948897 
L 207.2418 247.034063 
L 207.6758 246.394234 
L 209.8458 243.692528 
L 210.5836 242.695922 
L 210.9308 242.253868 
L 211.8856 241.093533 
L 212.3196 240.464635 
L 218.5258 232.442908 
L 218.873 231.9614 
L 219.3938 231.307419 
L 220.4788 230.055552 
L 220.8694 229.488296 
L 224.081 225.531718 
L 224.4716 225.011579 
L 224.7754 224.59055 
L 225.0792 224.16815 
L 225.6 223.57015 
L 226.3378 222.74941 
L 231.676 216.213198 
L 231.8496 216.06271 
L 232.8044 214.965254 
L 233.195 214.403612 
L 233.8026 213.683011 
L 234.063 213.347737 
L 235.0612 212.14532 
L 235.4952 211.594651 
L 235.7556 211.324402 
L 236.1028 210.897589 
L 236.6236 210.248036 
L 237.1878 209.67068 
L 238.0992 208.517477 
L 238.3596 208.190382 
L 238.5332 207.992575 
L 238.7936 207.656157 
L 239.6182 206.666761 
L 240.2692 205.883392 
L 240.573 205.547916 
L 241.1806 204.935401 
L 242.2222 203.77907 
L 244.0016 201.657129 
L 246.7792 198.548016 
L 247.083 198.163855 
L 247.517 197.658306 
L 247.8642 197.289521 
L 248.9058 195.980278 
L 249.253 195.604331 
L 249.6436 195.141972 
L 251.8136 192.65816 
L 251.9872 192.456477 
L 252.3778 192.030913 
L 253.159 191.229665 
L 253.6798 190.684873 
L 259.9294 183.976094 
L 260.6672 183.084778 
L 263.7486 179.842347 
L 264.0958 179.426301 
L 265.094 178.292415 
L 265.528 177.819145 
L 266.179 177.201637 
L 266.5262 176.864692 
L 267.3942 175.97787 
L 267.7414 175.631728 
L 269.217 174.083949 
L 269.6944 173.568929 
L 270.302 172.857602 
L 270.8662 172.237533 
L 276.2478 166.490172 
L 276.4214 166.30236 
L 276.7686 165.95176 
L 277.1592 165.443191 
L 277.5932 164.899554 
L 278.2442 164.178838 
L 278.765 163.589578 
L 280.8048 161.514256 
L 281.1954 161.138272 
L 282.1068 160.171162 
L 282.8446 159.420637 
L 283.0616 159.181535 
L 284.1466 158.088079 
L 284.841 157.43544 
L 285.5354 156.765671 
L 286.5336 155.642828 
L 286.794 155.421871 
L 287.228 154.950247 
L 291.0472 151.156516 
L 291.2208 150.989677 
L 291.9152 150.37063 
L 292.436 149.798386 
L 294.389 147.779464 
L 294.823 147.382697 
L 296.2552 146.013128 
L 296.6458 145.629346 
L 297.0798 145.221905 
L 299.7272 142.644057 
L 308.3638 134.445011 
L 309.362 133.634068 
L 309.9696 133.117009 
L 310.4036 132.802157 
L 310.7074 132.47418 
L 311.532 131.736039 
L 311.7924 131.501541 
L 312.1396 131.129816 
L 312.5736 130.753047 
L 313.1378 130.213871 
L 314.0492 129.462964 
L 315.5682 128.104105 
L 316.4362 127.346731 
L 317.3042 126.486119 
L 317.3042 126.486119 
" clip-path="url(#p65f764bf8a)" style="fill: none; stroke: #78c48a; stroke-width: 2.25; stroke-linecap: square"/>
   </g>
   <g id="line2d_29"/>
   <g id="line2d_30"/>
   <g id="line2d_31"/>
   <g id="line2d_32"/>
   <g id="line2d_33"/>
   <g id="line2d_34"/>
   <g id="line2d_35"/>
   <g id="line2d_36"/>
   <g id="patch_3">
    <path d="M 72.615 491.04 
L 72.615 47.52 
" style="fill: none; stroke: #000000; stroke-width: 1.875; stroke-linejoin: miter; stroke-linecap: square"/>
   </g>
   <g id="patch_4">
    <path d="M 72.615 491.04 
L 853.815 491.04 
" style="fill: none; stroke: #000000; stroke-width: 1.875; stroke-linejoin: miter; stroke-linecap: square"/>
   </g>
   <g id="text_23">
    <!-- Anthropogenic -->
    <g transform="translate(355.0188 410.046596)scale(0.18 -0.18)">
     <defs>
      <path id="DejaVuSans-41" d="M 2188 4044 
L 1331 1722 
L 3047 1722 
L 2188 4044 
z
M 1831 4666 
L 2547 4666 
L 4325 0 
L 3669 0 
L 3244 1197 
L 1141 1197 
L 716 0 
L 50 0 
L 1831 4666 
z
" transform="scale(0.015625)"/>
      <path id="DejaVuSans-74" d="M 1172 4494 
L 1172 3500 
L 2356 3500 
L 2356 3053 
L 1172 3053 
L 1172 1153 
Q 1172 725 1289 603 
Q 1406 481 1766 481 
L 2356 481 
L 2356 0 
L 1766 0 
Q 1100 0 847 248 
Q 594 497 594 1153 
L 594 3053 
L 172 3053 
L 172 3500 
L 594 3500 
L 594 4494 
L 1172 4494 
z
" transform="scale(0.015625)"/>
      <path id="DejaVuSans-68" d="M 3513 2113 
L 3513 0 
L 2938 0 
L 2938 2094 
Q 2938 2591 2744 2837 
Q 2550 3084 2163 3084 
Q 1697 3084 1428 2787 
Q 1159 2491 1159 1978 
L 1159 0 
L 581 0 
L 581 4863 
L 1159 4863 
L 1159 2956 
Q 1366 3272 1645 3428 
Q 1925 3584 2291 3584 
Q 2894 3584 3203 3211 
Q 3513 2838 3513 2113 
z
" transform="scale(0.015625)"/>
      <path id="DejaVuSans-67" d="M 2906 1791 
Q 2906 2416 2648 2759 
Q 2391 3103 1925 3103 
Q 1463 3103 1205 2759 
Q 947 2416 947 1791 
Q 947 1169 1205 825 
Q 1463 481 1925 481 
Q 2391 481 2648 825 
Q 2906 1169 2906 1791 
z
M 3481 434 
Q 3481 -459 3084 -895 
Q 2688 -1331 1869 -1331 
Q 1566 -1331 1297 -1286 
Q 1028 -1241 775 -1147 
L 775 -588 
Q 1028 -725 1275 -790 
Q 1522 -856 1778 -856 
Q 2344 -856 2625 -561 
Q 2906 -266 2906 331 
L 2906 616 
Q 2728 306 2450 153 
Q 2172 0 1784 0 
Q 1141 0 747 490 
Q 353 981 353 1791 
Q 353 2603 747 3093 
Q 1141 3584 1784 3584 
Q 2172 3584 2450 3431 
Q 2728 3278 2906 2969 
L 2906 3500 
L 3481 3500 
L 3481 434 
z
" transform="scale(0.015625)"/>
      <path id="DejaVuSans-63" d="M 3122 3366 
L 3122 2828 
Q 2878 2963 2633 3030 
Q 2388 3097 2138 3097 
Q 1578 3097 1268 2742 
Q 959 2388 959 1747 
Q 959 1106 1268 751 
Q 1578 397 2138 397 
Q 2388 397 2633 464 
Q 2878 531 3122 666 
L 3122 134 
Q 2881 22 2623 -34 
Q 2366 -91 2075 -91 
Q 1284 -91 818 406 
Q 353 903 353 1747 
Q 353 2603 823 3093 
Q 1294 3584 2113 3584 
Q 2378 3584 2631 3529 
Q 2884 3475 3122 3366 
z
" transform="scale(0.015625)"/>
     </defs>
     <use xlink:href="#DejaVuSans-41"/>
     <use xlink:href="#DejaVuSans-6e" x="68.408203"/>
     <use xlink:href="#DejaVuSans-74" x="131.787109"/>
     <use xlink:href="#DejaVuSans-68" x="170.996094"/>
     <use xlink:href="#DejaVuSans-72" x="234.375"/>
     <use xlink:href="#DejaVuSans-6f" x="273.238281"/>
     <use xlink:href="#DejaVuSans-70" x="334.419922"/>
     <use xlink:href="#DejaVuSans-6f" x="397.896484"/>
     <use xlink:href="#DejaVuSans-67" x="459.078125"/>
     <use xlink:href="#DejaVuSans-65" x="522.554688"/>
     <use xlink:href="#DejaVuSans-6e" x="584.078125"/>
     <use xlink:href="#DejaVuSans-69" x="647.457031"/>
     <use xlink:href="#DejaVuSans-63" x="675.240234"/>
    </g>
   </g>
   <g id="text_24">
    <!-- Aquatic -->
    <g transform="translate(356.017 236.70785)scale(0.18 -0.18)">
     <defs>
      <path id="DejaVuSans-71" d="M 947 1747 
Q 947 1113 1208 752 
Q 1469 391 1925 391 
Q 2381 391 2643 752 
Q 2906 1113 2906 1747 
Q 2906 2381 2643 2742 
Q 2381 3103 1925 3103 
Q 1469 3103 1208 2742 
Q 947 2381 947 1747 
z
M 2906 525 
Q 2725 213 2448 61 
Q 2172 -91 1784 -91 
Q 1150 -91 751 415 
Q 353 922 353 1747 
Q 353 2572 751 3078 
Q 1150 3584 1784 3584 
Q 2172 3584 2448 3432 
Q 2725 3281 2906 2969 
L 2906 3500 
L 3481 3500 
L 3481 -1331 
L 2906 -1331 
L 2906 525 
z
" transform="scale(0.015625)"/>
     </defs>
     <use xlink:href="#DejaVuSans-41"/>
     <use xlink:href="#DejaVuSans-71" x="66.658203"/>
     <use xlink:href="#DejaVuSans-75" x="130.134766"/>
     <use xlink:href="#DejaVuSans-61" x="193.513672"/>
     <use xlink:href="#DejaVuSans-74" x="254.792969"/>
     <use xlink:href="#DejaVuSans-69" x="294.001953"/>
     <use xlink:href="#DejaVuSans-63" x="321.785156"/>
    </g>
   </g>
   <g id="text_25">
    <!-- Mammal gut -->
    <g transform="translate(226.7718 368.149489)scale(0.18 -0.18)">
     <defs>
      <path id="DejaVuSans-4d" d="M 628 4666 
L 1569 4666 
L 2759 1491 
L 3956 4666 
L 4897 4666 
L 4897 0 
L 4281 0 
L 4281 4097 
L 3078 897 
L 2444 897 
L 1241 4097 
L 1241 0 
L 628 0 
L 628 4666 
z
" transform="scale(0.015625)"/>
     </defs>
     <use xlink:href="#DejaVuSans-4d"/>
     <use xlink:href="#DejaVuSans-61" x="86.279297"/>
     <use xlink:href="#DejaVuSans-6d" x="147.558594"/>
     <use xlink:href="#DejaVuSans-6d" x="244.970703"/>
     <use xlink:href="#DejaVuSans-61" x="342.382812"/>
     <use xlink:href="#DejaVuSans-6c" x="403.662109"/>
     <use xlink:href="#DejaVuSans-20" x="431.445312"/>
     <use xlink:href="#DejaVuSans-67" x="463.232422"/>
     <use xlink:href="#DejaVuSans-75" x="526.708984"/>
     <use xlink:href="#DejaVuSans-74" x="590.087891"/>
    </g>
   </g>
   <g id="text_26">
    <!-- Other -->
    <g transform="translate(131.7258 470.576426)scale(0.18 -0.18)">
     <use xlink:href="#DejaVuSans-4f"/>
     <use xlink:href="#DejaVuSans-74" x="78.710938"/>
     <use xlink:href="#DejaVuSans-68" x="117.919922"/>
     <use xlink:href="#DejaVuSans-65" x="181.298828"/>
     <use xlink:href="#DejaVuSans-72" x="242.822266"/>
    </g>
   </g>
   <g id="text_27">
    <!-- Other animal -->
    <g transform="translate(176.9052 409.903822)scale(0.18 -0.18)">
     <use xlink:href="#DejaVuSans-4f"/>
     <use xlink:href="#DejaVuSans-74" x="78.710938"/>
     <use xlink:href="#DejaVuSans-68" x="117.919922"/>
     <use xlink:href="#DejaVuSans-65" x="181.298828"/>
     <use xlink:href="#DejaVuSans-72" x="242.822266"/>
     <use xlink:href="#DejaVuSans-20" x="283.935547"/>
     <use xlink:href="#DejaVuSans-61" x="315.722656"/>
     <use xlink:href="#DejaVuSans-6e" x="377.001953"/>
     <use xlink:href="#DejaVuSans-69" x="440.380859"/>
     <use xlink:href="#DejaVuSans-6d" x="468.164062"/>
     <use xlink:href="#DejaVuSans-61" x="565.576172"/>
     <use xlink:href="#DejaVuSans-6c" x="626.855469"/>
    </g>
   </g>
   <g id="text_28">
    <!-- Other human -->
    <g transform="translate(267.1338 463.199976)scale(0.18 -0.18)">
     <use xlink:href="#DejaVuSans-4f"/>
     <use xlink:href="#DejaVuSans-74" x="78.710938"/>
     <use xlink:href="#DejaVuSans-68" x="117.919922"/>
     <use xlink:href="#DejaVuSans-65" x="181.298828"/>
     <use xlink:href="#DejaVuSans-72" x="242.822266"/>
     <use xlink:href="#DejaVuSans-20" x="283.935547"/>
     <use xlink:href="#DejaVuSans-68" x="315.722656"/>
     <use xlink:href="#DejaVuSans-75" x="379.101562"/>
     <use xlink:href="#DejaVuSans-6d" x="442.480469"/>
     <use xlink:href="#DejaVuSans-61" x="539.892578"/>
     <use xlink:href="#DejaVuSans-6e" x="601.171875"/>
    </g>
   </g>
   <g id="text_29">
    <!-- Soil/plant -->
    <g transform="translate(317.3042 116.630119)scale(0.18 -0.18)">
     <defs>
      <path id="DejaVuSans-53" d="M 3425 4513 
L 3425 3897 
Q 3066 4069 2747 4153 
Q 2428 4238 2131 4238 
Q 1616 4238 1336 4038 
Q 1056 3838 1056 3469 
Q 1056 3159 1242 3001 
Q 1428 2844 1947 2747 
L 2328 2669 
Q 3034 2534 3370 2195 
Q 3706 1856 3706 1288 
Q 3706 609 3251 259 
Q 2797 -91 1919 -91 
Q 1588 -91 1214 -16 
Q 841 59 441 206 
L 441 856 
Q 825 641 1194 531 
Q 1563 422 1919 422 
Q 2459 422 2753 634 
Q 3047 847 3047 1241 
Q 3047 1584 2836 1778 
Q 2625 1972 2144 2069 
L 1759 2144 
Q 1053 2284 737 2584 
Q 422 2884 422 3419 
Q 422 4038 858 4394 
Q 1294 4750 2059 4750 
Q 2388 4750 2728 4690 
Q 3069 4631 3425 4513 
z
" transform="scale(0.015625)"/>
      <path id="DejaVuSans-2f" d="M 1625 4666 
L 2156 4666 
L 531 -594 
L 0 -594 
L 1625 4666 
z
" transform="scale(0.015625)"/>
     </defs>
     <use xlink:href="#DejaVuSans-53"/>
     <use xlink:href="#DejaVuSans-6f" x="63.476562"/>
     <use xlink:href="#DejaVuSans-69" x="124.658203"/>
     <use xlink:href="#DejaVuSans-6c" x="152.441406"/>
     <use xlink:href="#DejaVuSans-2f" x="180.224609"/>
     <use xlink:href="#DejaVuSans-70" x="213.916016"/>
     <use xlink:href="#DejaVuSans-6c" x="277.392578"/>
     <use xlink:href="#DejaVuSans-61" x="305.175781"/>
     <use xlink:href="#DejaVuSans-6e" x="366.455078"/>
     <use xlink:href="#DejaVuSans-74" x="429.833984"/>
    </g>
   </g>
   <g id="legend_1">
    <g id="patch_5">
     <path d="M 896.175 246.22125 
L 1069.463672 246.22125 
Q 1072.763672 246.22125 1072.763672 242.92125 
L 1072.763672 50.82 
Q 1072.763672 47.52 1069.463672 47.52 
L 896.175 47.52 
Q 892.875 47.52 892.875 50.82 
L 892.875 242.92125 
Q 892.875 246.22125 896.175 246.22125 
z
" style="fill: #ffffff; opacity: 0.8; stroke: #cccccc; stroke-width: 1.5; stroke-linejoin: miter"/>
    </g>
    <g id="line2d_37">
     <path d="M 899.475 60.882422 
L 915.975 60.882422 
L 932.475 60.882422 
" style="fill: none; stroke: #878a8a; stroke-width: 2.25; stroke-linecap: square"/>
    </g>
    <g id="text_30">
     <!-- Other animal -->
     <g transform="translate(945.675 66.657422)scale(0.165 -0.165)">
      <use xlink:href="#DejaVuSans-4f"/>
      <use xlink:href="#DejaVuSans-74" x="78.710938"/>
      <use xlink:href="#DejaVuSans-68" x="117.919922"/>
      <use xlink:href="#DejaVuSans-65" x="181.298828"/>
      <use xlink:href="#DejaVuSans-72" x="242.822266"/>
      <use xlink:href="#DejaVuSans-20" x="283.935547"/>
      <use xlink:href="#DejaVuSans-61" x="315.722656"/>
      <use xlink:href="#DejaVuSans-6e" x="377.001953"/>
      <use xlink:href="#DejaVuSans-69" x="440.380859"/>
      <use xlink:href="#DejaVuSans-6d" x="468.164062"/>
      <use xlink:href="#DejaVuSans-61" x="565.576172"/>
      <use xlink:href="#DejaVuSans-6c" x="626.855469"/>
     </g>
    </g>
    <g id="line2d_38">
     <path d="M 899.475 85.101328 
L 915.975 85.101328 
L 932.475 85.101328 
" style="fill: none; stroke: #792597; stroke-width: 2.25; stroke-linecap: square"/>
    </g>
    <g id="text_31">
     <!-- Other human -->
     <g transform="translate(945.675 90.876328)scale(0.165 -0.165)">
      <use xlink:href="#DejaVuSans-4f"/>
      <use xlink:href="#DejaVuSans-74" x="78.710938"/>
      <use xlink:href="#DejaVuSans-68" x="117.919922"/>
      <use xlink:href="#DejaVuSans-65" x="181.298828"/>
      <use xlink:href="#DejaVuSans-72" x="242.822266"/>
      <use xlink:href="#DejaVuSans-20" x="283.935547"/>
      <use xlink:href="#DejaVuSans-68" x="315.722656"/>
      <use xlink:href="#DejaVuSans-75" x="379.101562"/>
      <use xlink:href="#DejaVuSans-6d" x="442.480469"/>
      <use xlink:href="#DejaVuSans-61" x="539.892578"/>
      <use xlink:href="#DejaVuSans-6e" x="601.171875"/>
     </g>
    </g>
    <g id="line2d_39">
     <path d="M 899.475 109.320234 
L 915.975 109.320234 
L 932.475 109.320234 
" style="fill: none; stroke: #0522bb; stroke-width: 2.25; stroke-linecap: square"/>
    </g>
    <g id="text_32">
     <!-- Aquatic -->
     <g transform="translate(945.675 115.095234)scale(0.165 -0.165)">
      <use xlink:href="#DejaVuSans-41"/>
      <use xlink:href="#DejaVuSans-71" x="66.658203"/>
      <use xlink:href="#DejaVuSans-75" x="130.134766"/>
      <use xlink:href="#DejaVuSans-61" x="193.513672"/>
      <use xlink:href="#DejaVuSans-74" x="254.792969"/>
      <use xlink:href="#DejaVuSans-69" x="294.001953"/>
      <use xlink:href="#DejaVuSans-63" x="321.785156"/>
     </g>
    </g>
    <g id="line2d_40">
     <path d="M 899.475 133.539141 
L 915.975 133.539141 
L 932.475 133.539141 
" style="fill: none; stroke: #11a837; stroke-width: 2.25; stroke-linecap: square"/>
    </g>
    <g id="text_33">
     <!-- Anthropogenic -->
     <g transform="translate(945.675 139.314141)scale(0.165 -0.165)">
      <use xlink:href="#DejaVuSans-41"/>
      <use xlink:href="#DejaVuSans-6e" x="68.408203"/>
      <use xlink:href="#DejaVuSans-74" x="131.787109"/>
      <use xlink:href="#DejaVuSans-68" x="170.996094"/>
      <use xlink:href="#DejaVuSans-72" x="234.375"/>
      <use xlink:href="#DejaVuSans-6f" x="273.238281"/>
      <use xlink:href="#DejaVuSans-70" x="334.419922"/>
      <use xlink:href="#DejaVuSans-6f" x="397.896484"/>
      <use xlink:href="#DejaVuSans-67" x="459.078125"/>
      <use xlink:href="#DejaVuSans-65" x="522.554688"/>
      <use xlink:href="#DejaVuSans-6e" x="584.078125"/>
      <use xlink:href="#DejaVuSans-69" x="647.457031"/>
      <use xlink:href="#DejaVuSans-63" x="675.240234"/>
     </g>
    </g>
    <g id="line2d_41">
     <path d="M 899.475 157.758047 
L 915.975 157.758047 
L 932.475 157.758047 
" style="fill: none; stroke: #966906; stroke-opacity: 0.992157; stroke-width: 2.25; stroke-linecap: square"/>
    </g>
    <g id="text_34">
     <!-- Mammal gut -->
     <g transform="translate(945.675 163.533047)scale(0.165 -0.165)">
      <use xlink:href="#DejaVuSans-4d"/>
      <use xlink:href="#DejaVuSans-61" x="86.279297"/>
      <use xlink:href="#DejaVuSans-6d" x="147.558594"/>
      <use xlink:href="#DejaVuSans-6d" x="244.970703"/>
      <use xlink:href="#DejaVuSans-61" x="342.382812"/>
      <use xlink:href="#DejaVuSans-6c" x="403.662109"/>
      <use xlink:href="#DejaVuSans-20" x="431.445312"/>
      <use xlink:href="#DejaVuSans-67" x="463.232422"/>
      <use xlink:href="#DejaVuSans-75" x="526.708984"/>
      <use xlink:href="#DejaVuSans-74" x="590.087891"/>
     </g>
    </g>
    <g id="line2d_42">
     <path d="M 899.475 181.976953 
L 915.975 181.976953 
L 932.475 181.976953 
" style="fill: none; stroke: #dd861d; stroke-width: 2.25; stroke-linecap: square"/>
    </g>
    <g id="text_35">
     <!-- Human gut -->
     <g transform="translate(945.675 187.751953)scale(0.165 -0.165)">
      <defs>
       <path id="DejaVuSans-48" d="M 628 4666 
L 1259 4666 
L 1259 2753 
L 3553 2753 
L 3553 4666 
L 4184 4666 
L 4184 0 
L 3553 0 
L 3553 2222 
L 1259 2222 
L 1259 0 
L 628 0 
L 628 4666 
z
" transform="scale(0.015625)"/>
      </defs>
      <use xlink:href="#DejaVuSans-48"/>
      <use xlink:href="#DejaVuSans-75" x="75.195312"/>
      <use xlink:href="#DejaVuSans-6d" x="138.574219"/>
      <use xlink:href="#DejaVuSans-61" x="235.986328"/>
      <use xlink:href="#DejaVuSans-6e" x="297.265625"/>
      <use xlink:href="#DejaVuSans-20" x="360.644531"/>
      <use xlink:href="#DejaVuSans-67" x="392.431641"/>
      <use xlink:href="#DejaVuSans-75" x="455.908203"/>
      <use xlink:href="#DejaVuSans-74" x="519.287109"/>
     </g>
    </g>
    <g id="line2d_43">
     <path d="M 899.475 206.195859 
L 915.975 206.195859 
L 932.475 206.195859 
" style="fill: none; stroke: #000000; stroke-width: 2.25; stroke-linecap: square"/>
    </g>
    <g id="text_36">
     <!-- Other -->
     <g transform="translate(945.675 211.970859)scale(0.165 -0.165)">
      <use xlink:href="#DejaVuSans-4f"/>
      <use xlink:href="#DejaVuSans-74" x="78.710938"/>
      <use xlink:href="#DejaVuSans-68" x="117.919922"/>
      <use xlink:href="#DejaVuSans-65" x="181.298828"/>
      <use xlink:href="#DejaVuSans-72" x="242.822266"/>
     </g>
    </g>
    <g id="line2d_44">
     <path d="M 899.475 230.414766 
L 915.975 230.414766 
L 932.475 230.414766 
" style="fill: none; stroke: #78c48a; stroke-width: 2.25; stroke-linecap: square"/>
    </g>
    <g id="text_37">
     <!-- Soil/plant -->
     <g transform="translate(945.675 236.189766)scale(0.165 -0.165)">
      <use xlink:href="#DejaVuSans-53"/>
      <use xlink:href="#DejaVuSans-6f" x="63.476562"/>
      <use xlink:href="#DejaVuSans-69" x="124.658203"/>
      <use xlink:href="#DejaVuSans-6c" x="152.441406"/>
      <use xlink:href="#DejaVuSans-2f" x="180.224609"/>
      <use xlink:href="#DejaVuSans-70" x="213.916016"/>
      <use xlink:href="#DejaVuSans-6c" x="277.392578"/>
      <use xlink:href="#DejaVuSans-61" x="305.175781"/>
      <use xlink:href="#DejaVuSans-6e" x="366.455078"/>
      <use xlink:href="#DejaVuSans-74" x="429.833984"/>
     </g>
    </g>
   </g>
  </g>
  <g id="axes_2">
   <g id="patch_6">
    <path d="M 501.015 266.4 
L 853.815 266.4 
L 853.815 7.2 
L 501.015 7.2 
z
" style="fill: #ffffff"/>
   </g>
   <g id="PolyCollection_9"/>
   <g id="matplotlib.axis_3">
    <g id="xtick_11">
     <g id="line2d_45">
      <g>
       <use xlink:href="#m88c9070d3b" x="501.015" y="266.4" style="stroke: #000000; stroke-width: 1.875"/>
      </g>
     </g>
     <g id="text_38">
      <!-- 0 -->
      <g transform="translate(495.765938 291.437422)scale(0.165 -0.165)">
       <use xlink:href="#DejaVuSans-30"/>
      </g>
     </g>
    </g>
    <g id="xtick_12">
     <g id="line2d_46">
      <g>
       <use xlink:href="#m88c9070d3b" x="601.815" y="266.4" style="stroke: #000000; stroke-width: 1.875"/>
      </g>
     </g>
     <g id="text_39">
      <!-- 10,000 -->
      <g transform="translate(572.947734 291.437422)scale(0.165 -0.165)">
       <use xlink:href="#DejaVuSans-31"/>
       <use xlink:href="#DejaVuSans-30" x="63.623047"/>
       <use xlink:href="#DejaVuSans-2c" x="127.246094"/>
       <use xlink:href="#DejaVuSans-30" x="159.033203"/>
       <use xlink:href="#DejaVuSans-30" x="222.65625"/>
       <use xlink:href="#DejaVuSans-30" x="286.279297"/>
      </g>
     </g>
    </g>
    <g id="xtick_13">
     <g id="line2d_47">
      <g>
       <use xlink:href="#m88c9070d3b" x="702.615" y="266.4" style="stroke: #000000; stroke-width: 1.875"/>
      </g>
     </g>
     <g id="text_40">
      <!-- 20,000 -->
      <g transform="translate(673.747734 291.437422)scale(0.165 -0.165)">
       <use xlink:href="#DejaVuSans-32"/>
       <use xlink:href="#DejaVuSans-30" x="63.623047"/>
       <use xlink:href="#DejaVuSans-2c" x="127.246094"/>
       <use xlink:href="#DejaVuSans-30" x="159.033203"/>
       <use xlink:href="#DejaVuSans-30" x="222.65625"/>
       <use xlink:href="#DejaVuSans-30" x="286.279297"/>
      </g>
     </g>
    </g>
    <g id="xtick_14">
     <g id="line2d_48">
      <g>
       <use xlink:href="#m88c9070d3b" x="803.415" y="266.4" style="stroke: #000000; stroke-width: 1.875"/>
      </g>
     </g>
     <g id="text_41">
      <!-- 30,000 -->
      <g transform="translate(774.547734 291.437422)scale(0.165 -0.165)">
       <use xlink:href="#DejaVuSans-33"/>
       <use xlink:href="#DejaVuSans-30" x="63.623047"/>
       <use xlink:href="#DejaVuSans-2c" x="127.246094"/>
       <use xlink:href="#DejaVuSans-30" x="159.033203"/>
       <use xlink:href="#DejaVuSans-30" x="222.65625"/>
       <use xlink:href="#DejaVuSans-30" x="286.279297"/>
      </g>
     </g>
    </g>
   </g>
   <g id="matplotlib.axis_4">
    <g id="ytick_11">
     <g id="line2d_49">
      <g>
       <use xlink:href="#m4fb7845765" x="501.015" y="254.676455" style="stroke: #000000; stroke-width: 1.875"/>
      </g>
     </g>
     <g id="text_42">
      <!-- 0 -->
      <g transform="translate(478.016875 260.945166)scale(0.165 -0.165)">
       <use xlink:href="#DejaVuSans-30"/>
      </g>
     </g>
    </g>
    <g id="ytick_12">
     <g id="line2d_50">
      <g>
       <use xlink:href="#m4fb7845765" x="501.015" y="213.117416" style="stroke: #000000; stroke-width: 1.875"/>
      </g>
     </g>
     <g id="text_43">
      <!-- 20 -->
      <g transform="translate(467.51875 219.386127)scale(0.165 -0.165)">
       <use xlink:href="#DejaVuSans-32"/>
       <use xlink:href="#DejaVuSans-30" x="63.623047"/>
      </g>
     </g>
    </g>
    <g id="ytick_13">
     <g id="line2d_51">
      <g>
       <use xlink:href="#m4fb7845765" x="501.015" y="171.558377" style="stroke: #000000; stroke-width: 1.875"/>
      </g>
     </g>
     <g id="text_44">
      <!-- 40 -->
      <g transform="translate(467.51875 177.827088)scale(0.165 -0.165)">
       <use xlink:href="#DejaVuSans-34"/>
       <use xlink:href="#DejaVuSans-30" x="63.623047"/>
      </g>
     </g>
    </g>
    <g id="ytick_14">
     <g id="line2d_52">
      <g>
       <use xlink:href="#m4fb7845765" x="501.015" y="129.999338" style="stroke: #000000; stroke-width: 1.875"/>
      </g>
     </g>
     <g id="text_45">
      <!-- 60 -->
      <g transform="translate(467.51875 136.268048)scale(0.165 -0.165)">
       <use xlink:href="#DejaVuSans-36"/>
       <use xlink:href="#DejaVuSans-30" x="63.623047"/>
      </g>
     </g>
    </g>
    <g id="ytick_15">
     <g id="line2d_53">
      <g>
       <use xlink:href="#m4fb7845765" x="501.015" y="88.440298" style="stroke: #000000; stroke-width: 1.875"/>
      </g>
     </g>
     <g id="text_46">
      <!-- 80 -->
      <g transform="translate(467.51875 94.709009)scale(0.165 -0.165)">
       <use xlink:href="#DejaVuSans-38"/>
       <use xlink:href="#DejaVuSans-30" x="63.623047"/>
      </g>
     </g>
    </g>
    <g id="ytick_16">
     <g id="line2d_54">
      <g>
       <use xlink:href="#m4fb7845765" x="501.015" y="46.881259" style="stroke: #000000; stroke-width: 1.875"/>
      </g>
     </g>
     <g id="text_47">
      <!-- 100 -->
      <g transform="translate(457.020625 53.14997)scale(0.165 -0.165)">
       <use xlink:href="#DejaVuSans-31"/>
       <use xlink:href="#DejaVuSans-30" x="63.623047"/>
       <use xlink:href="#DejaVuSans-30" x="127.246094"/>
      </g>
     </g>
    </g>
   </g>
   <g id="line2d_55">
    <path d="M 501.02508 254.618182 
L 501.88188 251.415581 
L 502.779 248.743454 
L 503.47452 246.86172 
L 504.00876 245.520644 
L 505.93404 241.120218 
L 508.5246 235.965935 
L 511.37724 230.964331 
L 513.8166 226.955288 
L 516.52812 222.804224 
L 517.47564 221.441483 
L 517.65708 221.163174 
L 519.32028 218.849432 
L 519.79404 218.213317 
L 520.42908 217.404795 
L 524.18892 212.375077 
L 524.86428 211.550517 
L 525.97308 210.166459 
L 530.22684 205.15395 
L 530.96268 204.289237 
L 532.62588 202.366612 
L 532.9182 202.016836 
L 533.45244 201.396292 
L 534.21852 200.527895 
L 535.4382 199.196493 
L 535.91196 198.671568 
L 538.28076 196.133947 
L 538.563 195.831098 
L 539.4702 194.876931 
L 544.64124 189.637262 
L 545.37708 188.899411 
L 552.59436 181.856254 
L 553.28988 181.209836 
L 556.69692 178.082941 
L 557.25132 177.574151 
L 557.72508 177.143308 
L 558.66252 176.321925 
L 561.27324 174.022691 
L 561.76716 173.565035 
L 564.015 171.607374 
L 564.65004 171.05842 
L 566.35356 169.638106 
L 566.69628 169.350777 
L 570.92988 165.792646 
L 571.34316 165.441002 
L 572.56284 164.430929 
L 573.06684 164.029264 
L 575.27436 162.218998 
L 576.5142 161.21805 
L 577.2702 160.635414 
L 579.77004 158.555689 
L 581.151 157.454387 
L 582.03804 156.724405 
L 582.915 156.051764 
L 584.06412 155.178104 
L 585.22332 154.315123 
L 585.54588 154.057221 
L 585.95916 153.749013 
L 586.8462 153.05791 
L 587.16876 152.815776 
L 587.8542 152.294402 
L 606.73404 138.492838 
L 618.1446 130.638865 
L 618.6486 130.296857 
L 619.67676 129.603249 
L 620.50332 129.042438 
L 621.13836 128.626589 
L 622.81164 127.490341 
L 625.48284 125.72472 
L 625.93644 125.424956 
L 634.89756 119.679297 
L 636.63132 118.578848 
L 637.38732 118.111001 
L 640.45164 116.218442 
L 647.55804 111.841549 
L 647.84028 111.653439 
L 661.75068 103.316322 
L 669.89532 98.559787 
L 670.89324 97.993055 
L 674.35068 96.048042 
L 674.72364 95.831177 
L 676.22556 94.962107 
L 677.57628 94.216357 
L 678.43308 93.735937 
L 679.01772 93.416819 
L 680.4894 92.597446 
L 680.67084 92.48601 
L 681.46716 92.030061 
L 682.0014 91.733708 
L 683.03964 91.14931 
L 683.54364 90.877967 
L 684.1686 90.528555 
L 689.34972 87.711837 
L 690.03516 87.338595 
L 690.81132 86.922124 
L 692.71644 85.906252 
L 693.15996 85.66818 
L 694.1982 85.116017 
L 700.02444 81.899756 
L 703.00812 80.343238 
L 703.4718 80.107411 
L 705.88092 78.825792 
L 706.42524 78.52366 
L 707.61468 77.911662 
L 708.55212 77.43167 
L 709.37868 76.998917 
L 709.94316 76.690763 
L 711.12252 76.08326 
L 714.90252 74.073555 
L 715.467 73.767199 
L 716.3238 73.296149 
L 716.88828 73.006472 
L 724.59948 69.072558 
L 727.98636 67.342419 
L 729.24636 66.720662 
L 730.06284 66.304482 
L 730.87932 65.91799 
L 731.68572 65.514631 
L 739.63884 61.5964 
L 740.163 61.345565 
L 741.6246 60.624163 
L 742.39068 60.236709 
L 745.01148 58.961541 
L 745.6566 58.620953 
L 747.41052 57.757381 
L 749.5878 56.677074 
L 750.4446 56.249099 
L 751.73484 55.617749 
L 752.39004 55.31111 
L 753.57948 54.739965 
L 769.63692 47.023006 
L 770.88684 46.430813 
L 775.42284 44.360502 
L 776.87436 43.707413 
L 778.3662 43.00417 
L 779.20284 42.624239 
L 780.99708 41.804534 
L 782.23692 41.249026 
L 782.73084 41.023311 
L 784.73676 40.098714 
L 785.3718 39.810529 
L 789.8574 37.779145 
L 790.27068 37.595233 
L 791.68188 36.937861 
L 804.10044 31.368022 
L 806.02572 30.531674 
L 807.57804 29.837928 
L 808.81788 29.310985 
L 809.48316 29.01626 
L 811.49916 28.149512 
L 814.08972 27.032079 
L 815.26908 26.521066 
L 823.94796 22.815478 
L 825.50028 22.14928 
L 826.05468 21.899032 
L 826.70988 21.620873 
L 828.27228 20.952984 
L 829.33068 20.521875 
L 830.70156 19.930993 
L 831.5382 19.578345 
L 832.23372 19.277391 
L 832.91916 18.981818 
L 832.91916 18.981818 
" clip-path="url(#p3f3ffa7268)" style="fill: none; stroke: #dd861d; stroke-width: 2.25; stroke-linecap: square"/>
   </g>
   <g id="line2d_56"/>
   <g id="patch_7">
    <path d="M 501.015 266.4 
L 501.015 7.2 
" style="fill: none; stroke: #000000; stroke-width: 1.875; stroke-linejoin: miter; stroke-linecap: square"/>
   </g>
   <g id="patch_8">
    <path d="M 501.015 266.4 
L 853.815 266.4 
" style="fill: none; stroke: #000000; stroke-width: 1.875; stroke-linejoin: miter; stroke-linecap: square"/>
   </g>
   <g id="text_48">
    <!-- Human gut -->
    <g transform="translate(521.175 46.881259)scale(0.18 -0.18)">
     <use xlink:href="#DejaVuSans-48"/>
     <use xlink:href="#DejaVuSans-75" x="75.195312"/>
     <use xlink:href="#DejaVuSans-6d" x="138.574219"/>
     <use xlink:href="#DejaVuSans-61" x="235.986328"/>
     <use xlink:href="#DejaVuSans-6e" x="297.265625"/>
     <use xlink:href="#DejaVuSans-20" x="360.644531"/>
     <use xlink:href="#DejaVuSans-67" x="392.431641"/>
     <use xlink:href="#DejaVuSans-75" x="455.908203"/>
     <use xlink:href="#DejaVuSans-74" x="519.287109"/>
    </g>
   </g>
   <g id="text_49">
    <!-- All smORFs -->
    <g transform="translate(682.455 26.10174)scale(0.18 -0.18)">
     <use xlink:href="#DejaVuSans-41"/>
     <use xlink:href="#DejaVuSans-6c" x="68.408203"/>
     <use xlink:href="#DejaVuSans-6c" x="96.191406"/>
     <use xlink:href="#DejaVuSans-20" x="123.974609"/>
     <use xlink:href="#DejaVuSans-73" x="155.761719"/>
     <use xlink:href="#DejaVuSans-6d" x="207.861328"/>
     <use xlink:href="#DejaVuSans-4f" x="305.273438"/>
     <use xlink:href="#DejaVuSans-52" x="383.984375"/>
     <use xlink:href="#DejaVuSans-46" x="453.466797"/>
     <use xlink:href="#DejaVuSans-73" x="510.986328"/>
    </g>
   </g>
   <g id="legend_2"/>
  </g>
 </g>
 <defs>
  <clipPath id="p65f764bf8a">
   <rect x="72.615" y="47.52" width="781.2" height="443.52"/>
  </clipPath>
  <clipPath id="p3f3ffa7268">
   <rect x="501.015" y="7.2" width="352.8" height="259.2"/>
  </clipPath>
 </defs>
</svg>
